<svg version="1.1" xmlns="http://www.w3.org/2000/svg" style="display: block;" viewBox="0 0 2048 2048" width="1024" height="1024">
<defs>
	<linearGradient id="Gradient1" gradientUnits="userSpaceOnUse" x1="611.103" y1="1757.29" x2="592.76" y2="1770.81">
		<stop class="stop0" offset="0" stop-opacity="1" stop-color="rgb(36,29,22)"/>
		<stop class="stop1" offset="1" stop-opacity="1" stop-color="rgb(52,51,32)"/>
	</linearGradient>
</defs>
<path transform="translate(0,0)" fill="rgb(248,244,239)" d="M 0 0 L 2048 0 L 2048 2048 L 0 2048 L 0 0 z"/>
<path transform="translate(0,0)" fill="rgb(51,51,36)" d="M 571.56 1277.09 L 594.858 1276.66 C 590.811 1287.32 586.798 1298.02 584.461 1309.21 C 580.342 1328.92 583.517 1341.1 594.341 1357.75 C 617.22 1392.94 646.779 1419.4 689.297 1426.7 C 714.081 1430.96 739.465 1428.33 764.027 1423.71 C 799.677 1417 834.015 1405.01 868.723 1394.73 L 1014.09 1351.89 C 1035.05 1345.31 1056.14 1339.15 1077.34 1333.43 C 1099.56 1327.51 1122.27 1322.37 1143.97 1314.74 C 1169.84 1305.65 1241.85 1274.71 1265.32 1279.66 C 1267.16 1281.38 1268.14 1281.96 1268.09 1284.72 C 1267.89 1297.31 1240.48 1323.85 1231.75 1333.56 C 1309.01 1352.67 1472.21 1426.26 1521.88 1487.58 C 1542.45 1512.98 1554.73 1540.52 1551.16 1573.74 C 1544.68 1634.09 1498.24 1673.89 1454.32 1709.66 C 1481.82 1712.16 1509 1715.25 1536.13 1720.51 C 1603.95 1733.64 1675.83 1756.38 1734.12 1794.3 C 1745.6 1801.76 1758.3 1810.25 1766.07 1821.77 C 1753.84 1816.94 1742.67 1809.77 1731.15 1803.47 C 1717.55 1796.07 1703.66 1789.21 1689.52 1782.89 C 1608.31 1747.24 1522.78 1732.29 1434.92 1725.6 L 1425.27 1731.94 C 1418.21 1736.72 1411.11 1741.45 1403.96 1746.11 C 1344.03 1784.92 1280.37 1814.64 1214.51 1841.74 C 1179.99 1855.95 1145.45 1870.36 1110.09 1882.36 C 1007.14 1916.44 900.327 1937.52 792.143 1945.1 C 741.032 1948.34 688.007 1949.26 637.669 1938.35 C 591.943 1928.44 543.832 1905.74 517.97 1864.87 C 493.508 1826.21 497.396 1776.51 506.971 1733.79 C 438.651 1749.44 356.409 1766.38 294.034 1798.6 C 279.163 1806.29 265.456 1815.81 251.615 1825.17 C 252.79 1822.81 254.019 1820.48 255.557 1818.33 C 292.981 1765.89 448.288 1726.19 511.346 1714.5 C 515.966 1695.14 523.32 1676.38 531.083 1658.1 C 561.336 1586.85 605.861 1526.87 662.182 1474.05 C 627.62 1463.06 597.076 1441.36 579.926 1408.86 C 558.996 1369.21 558.8 1319.19 571.56 1277.09 z"/>
<path transform="translate(0,0)" fill="rgb(248,244,239)" d="M 1216.33 1347.49 C 1257.41 1357.9 1329.53 1386.18 1366.69 1406.8 C 1361.27 1411.47 1355.92 1416.18 1350.07 1420.33 C 1337.04 1413.04 1308.42 1394.87 1294.26 1396.46 L 1292.79 1397.51 C 1296.13 1404.34 1335.23 1421.68 1344.53 1427.03 C 1323.78 1447.67 1300.78 1467.03 1285.47 1492.35 C 1263.14 1529.28 1272.4 1556.49 1233.16 1588.27 C 1192.77 1620.97 1120.65 1646.45 1071.78 1664.85 C 1019.13 1684.68 965.316 1703.86 915.028 1729.31 C 879.581 1747.25 846.883 1770.2 814.495 1793.06 C 783.477 1814.94 752.226 1837.8 716.844 1852.24 C 683.675 1865.78 640.829 1868.62 605.155 1868.56 C 580.362 1868.53 552.5 1864.99 533.951 1846.55 C 520.13 1832.81 517.993 1808.24 518.354 1789.79 C 519.064 1753.53 534.028 1691.3 552.037 1659.05 C 562.623 1670.88 639.132 1764.77 646.796 1764.98 C 647.705 1765 648.079 1764.86 648.897 1764.64 C 649.747 1762.6 649.571 1762.38 648.723 1760.4 C 647.55 1757.66 645.564 1755.15 643.669 1752.86 C 630.428 1736.91 615.482 1722.1 601.995 1706.24 C 586.816 1688.4 572.465 1667.87 555.2 1652.04 C 564.051 1633.47 573.564 1615.73 584.382 1598.22 C 596.264 1615.39 666.511 1696.26 683.244 1700.82 C 684.302 1701.11 684.79 1700.96 685.764 1700.83 L 686.926 1699.08 C 684.82 1692.16 652.959 1664.31 645.195 1656.39 C 625.135 1635.74 605.919 1614.29 587.594 1592.08 C 592.463 1584.29 597.296 1576.59 602.819 1569.23 C 608.522 1576.19 626.07 1600.97 634.757 1602 L 636.511 1600.68 C 636.927 1595.89 633.294 1591.94 630.343 1588.38 C 623.132 1579.69 615.225 1571.56 607.846 1563.01 C 611.949 1557.2 616.175 1551.8 620.915 1546.5 C 642.879 1569.89 775.297 1705.63 800.589 1708.26 L 801.319 1706.68 C 797.015 1696.62 765.42 1674.56 754.825 1665.11 C 710.511 1625.62 667.099 1583.69 626.472 1540.41 C 644.221 1518.47 663.925 1498.65 684.064 1478.92 L 685.36 1479.71 C 698.063 1487.58 709.144 1498.21 721.092 1507.18 C 750.246 1529.07 779.947 1550.36 809.425 1571.82 C 826.717 1584.41 848.407 1601.54 866.568 1611.98 C 869.279 1613.54 870.817 1614.05 873.915 1613.78 L 875.271 1612.02 C 874.66 1608.13 871.56 1605.93 868.546 1603.74 L 699.59 1480.83 C 733.089 1482.46 766.002 1481.48 799.396 1478.3 C 831.847 1496.19 862.988 1517.07 893.583 1537.91 C 908.121 1547.82 922.542 1558.84 937.639 1567.82 C 941.12 1569.89 945.899 1573.12 949.99 1572.8 L 951.112 1571.72 C 945.153 1557.09 831.223 1487.2 811.504 1476.34 C 828.64 1474.68 845.632 1472.87 862.537 1469.52 C 884.054 1483.62 907.253 1495.68 929.749 1508.15 C 942.434 1515.18 955.321 1523.43 968.302 1529.7 C 970.965 1530.99 973.174 1531.48 976.109 1531.59 L 978.375 1530.4 L 978.762 1528.61 C 970.45 1517.95 889.785 1476.19 871.802 1466.89 C 893.297 1463.42 914.537 1458.42 935.847 1453.97 C 951.117 1464.31 1028.82 1509.85 1039.93 1509.3 L 1041.37 1507.91 C 1041.05 1504.96 1039.7 1502.98 1037.35 1501.23 C 1030.3 1495.97 1020.43 1492.08 1012.57 1487.82 C 989.925 1475.55 967.161 1463.18 944.103 1451.69 C 964.8 1447.5 985.28 1442 1005.64 1436.4 C 1020.74 1445.22 1035.3 1454.91 1050.32 1463.84 C 1065.65 1472.95 1081.51 1481.28 1097.12 1489.89 C 1103.49 1493.41 1111.92 1499.94 1118.59 1502.1 C 1120.67 1502.78 1122.77 1502.51 1124.87 1502.1 L 1126.15 1500.82 C 1124.78 1495.78 1119.7 1492.84 1115.38 1490.32 C 1082.32 1471.05 1048.36 1453.49 1015.6 1433.68 C 1029.65 1429.69 1043.66 1425.52 1057.62 1421.19 C 1080.91 1433.62 1104.44 1445.49 1127.4 1458.55 C 1145.36 1468.77 1162.96 1480.44 1181.29 1489.9 C 1184.25 1491.42 1185.34 1491.79 1188.67 1491.36 L 1189.75 1489.84 C 1189.06 1485.9 1187.13 1484.31 1183.99 1482.14 C 1175.22 1476.05 1165.43 1471.2 1156.26 1465.7 C 1127.77 1448.62 1097.73 1430.34 1066.64 1418.34 C 1085.97 1411.76 1105.41 1404.59 1124.2 1396.62 C 1135.74 1391.72 1147.28 1385.42 1159.09 1381.4 C 1161.93 1380.44 1162.6 1380.31 1165.58 1380.84 C 1165.75 1380.5 1165.9 1380.16 1166.08 1379.84 C 1167.98 1376.46 1169.82 1376.33 1173.24 1375.44 C 1175.49 1371.54 1208.82 1352.48 1216.33 1347.49 z"/>
<path transform="translate(0,0)" fill="rgb(51,51,36)" d="M 1173.24 1375.44 C 1183.9 1379.31 1220.98 1394.9 1227.71 1402.57 L 1227.96 1405.12 C 1225.8 1406.61 1224.52 1406.44 1222.02 1405.98 C 1209.72 1403.73 1179.07 1386.9 1165.58 1380.84 C 1165.75 1380.5 1165.9 1380.16 1166.08 1379.84 C 1167.98 1376.46 1169.82 1376.33 1173.24 1375.44 z"/>
<path transform="translate(0,0)" fill="rgb(51,51,36)" d="M 663.393 1529.36 C 671.206 1530.34 679.867 1541.59 685.23 1547.2 C 703.798 1566.53 723.077 1585.16 743.028 1603.05 C 756.536 1614.93 777.185 1630.05 788.047 1643.43 C 788.286 1646.19 787.275 1646.87 785.749 1649.12 C 784.745 1648.81 784.515 1648.79 783.627 1648.38 C 771.073 1642.64 666.044 1544.1 661.435 1533.08 L 663.393 1529.36 z"/>
<path transform="translate(0,0)" fill="url(#Gradient1)" d="M 555.514 1716.4 C 561.674 1717.82 572.067 1731.51 576.859 1736.3 C 586.339 1745.76 647.767 1802.57 649.226 1805.59 C 650.574 1808.39 649.65 1810.06 648.927 1812.85 C 638.03 1810.69 565.63 1737.42 556.996 1725.17 C 554.556 1721.71 554.748 1720.34 555.514 1716.4 z"/>
<path transform="translate(0,0)" fill="rgb(51,51,36)" d="M 1149.25 1412.42 C 1155.48 1413.07 1223.69 1451.59 1230.19 1456.68 C 1231.16 1459.61 1230.37 1460.49 1229.37 1463.34 C 1217.58 1458.92 1154.91 1427.15 1147.68 1418.69 C 1147.16 1415.49 1147.72 1415.16 1149.25 1412.42 z"/>
<path transform="translate(0,0)" fill="rgb(51,51,36)" d="M 653.216 1720.43 C 655.312 1721.17 657.203 1721.88 659.024 1723.19 C 667.419 1729.22 708.732 1764.35 712.454 1771.43 C 713.815 1774.02 712.332 1775.63 711.234 1777.98 C 700.695 1771.58 659.724 1735.46 651.639 1725.91 C 651.169 1723.07 651.676 1722.92 653.216 1720.43 z"/>
<path transform="translate(0,0)" fill="rgb(51,51,36)" d="M 539.672 1794.84 C 549.077 1799.91 558.059 1812.15 566.101 1819.57 C 574.533 1827.35 583.503 1834.62 592.303 1841.98 C 593.252 1844.52 592.688 1844.91 591.73 1847.5 C 590.47 1847.4 589.242 1847.32 588.027 1846.94 C 577.774 1843.72 544.185 1811.45 539.455 1801.6 C 538.085 1798.75 538.558 1797.68 539.672 1794.84 z"/>
<path transform="translate(0,0)" fill="rgb(51,51,36)" d="M 740.354 1551.53 C 740.611 1551.62 740.872 1551.7 741.123 1551.8 C 749.814 1555.34 785.885 1587.36 788.463 1595.87 C 788.954 1597.49 787.808 1598.77 787.124 1600.21 C 780.276 1598.64 745.266 1565.35 739.385 1558.14 C 738.701 1555.05 739.229 1554.41 740.354 1551.53 z"/>
<path transform="translate(0,0)" fill="rgb(51,51,36)" d="M 771.22 1490.67 C 771.737 1490.76 772.258 1490.83 772.771 1490.94 C 781.079 1492.76 811.722 1515.45 816.166 1522.5 C 817.554 1524.71 816.901 1525.65 816.387 1528.07 C 809.491 1528.35 799.037 1518.34 793.51 1514.04 C 786.361 1508.48 772.367 1499.87 771.22 1490.67 z"/>
<path transform="translate(0,0)" fill="rgb(51,51,36)" d="M 651.421 1620.4 C 659.927 1622.66 680.752 1645.7 686.433 1653.25 C 688.464 1655.96 688.732 1656.81 688.17 1660.13 L 683.48 1660.15 C 676.026 1656.8 656.742 1634.86 651.994 1627.43 C 650.225 1624.66 650.655 1623.49 651.421 1620.4 z"/>
<path transform="translate(0,0)" fill="rgb(51,51,36)" d="M 549.854 1760.95 C 557.345 1764.3 576.269 1784.61 582.233 1791.88 C 584.565 1794.73 584.677 1795.64 584.444 1799.3 C 583.489 1799.3 582.959 1799.33 581.971 1799.13 C 574.953 1797.74 554.015 1775.27 550.074 1768.43 C 548.453 1765.61 549.18 1763.87 549.854 1760.95 z"/>
<path transform="translate(0,0)" fill="rgb(51,51,36)" d="M 835.997 1535.68 C 842.768 1537 868.033 1553.76 871.547 1559.32 C 873.157 1561.86 872.464 1562.76 871.753 1565.51 C 871.197 1565.48 870.641 1565.47 870.086 1565.43 C 863.219 1564.97 841.839 1547.72 837.06 1541.86 C 835.185 1539.57 835.525 1538.49 835.997 1535.68 z"/>
<path transform="translate(0,0)" fill="rgb(51,51,36)" d="M 1249.55 1412.56 C 1257.94 1415.14 1282.85 1427.06 1287.48 1433.62 C 1288.42 1434.94 1287.67 1435.81 1287.28 1437.25 C 1285.53 1437.23 1283.74 1437.14 1282.04 1436.72 C 1274.53 1434.89 1251.69 1424.75 1248.48 1417.64 C 1247.8 1416.13 1249.02 1414.06 1249.55 1412.56 z"/>
<path transform="translate(0,0)" fill="rgb(51,51,36)" d="M 688.936 1509.4 C 696.077 1512.26 712.6 1528.59 716.692 1535.22 C 718.234 1537.71 717.886 1538.79 717.087 1541.49 C 716.004 1541.42 715.222 1541.42 714.136 1541.11 C 708.217 1539.46 691.909 1522.78 688.552 1516.61 C 686.848 1513.48 687.835 1512.45 688.936 1509.4 z"/>
<path transform="translate(0,0)" fill="rgb(51,51,36)" d="M 1220.54 1360.65 C 1229.47 1362.46 1249.79 1369.08 1255.93 1375.8 C 1258.23 1378.31 1257.49 1380.04 1257.26 1383.13 C 1248.38 1380.19 1229.79 1373.8 1222.96 1368 C 1220.27 1365.72 1220.76 1363.86 1220.54 1360.65 z"/>
<path transform="translate(0,0)" fill="rgb(51,51,36)" d="M 606.307 1821.42 C 612.959 1823.23 619.424 1829.44 624.34 1834.15 C 628.231 1837.87 631.323 1840.31 631.427 1845.99 C 630.206 1846.03 629.258 1846.12 628.018 1845.87 C 621.155 1844.45 612.062 1835.47 608.173 1830.14 C 605.805 1826.89 605.77 1825.19 606.307 1821.42 z"/>
<path transform="translate(0,0)" fill="rgb(8,6,4)" d="M 580.571 1650.34 L 584.334 1651.28 C 588.575 1655.14 595.597 1661.4 596.568 1667.26 C 596.823 1668.8 595.843 1669.66 595.085 1670.91 C 594.663 1670.81 594.232 1670.74 593.817 1670.61 C 588.359 1668.92 583.294 1663.56 580.759 1658.6 C 579.058 1655.27 579.455 1653.85 580.571 1650.34 z"/>
<path transform="translate(0,0)" fill="rgb(8,6,4)" d="M 746.936 1797.51 C 748.804 1796.25 751.209 1796.1 753.214 1797.13 C 755.22 1798.16 756.51 1800.19 756.58 1802.44 C 756.651 1804.7 755.493 1806.81 753.555 1807.96 C 750.677 1809.67 746.962 1808.78 745.17 1805.95 C 743.379 1803.12 744.161 1799.38 746.936 1797.51 z"/>
<path transform="translate(0,0)" fill="rgb(8,6,4)" d="M 678.411 1831.35 C 681.458 1830.82 684.407 1832.7 685.221 1835.68 C 686.035 1838.66 684.448 1841.78 681.555 1842.87 C 679.422 1843.68 677.016 1843.21 675.346 1841.65 C 673.676 1840.1 673.03 1837.74 673.68 1835.55 C 674.33 1833.36 676.163 1831.74 678.411 1831.35 z"/>
<path transform="translate(0,0)" fill="rgb(8,6,4)" d="M 706.985 1678.47 C 708.912 1677.59 711.163 1677.83 712.867 1679.08 C 714.57 1680.34 715.459 1682.42 715.188 1684.52 C 714.917 1686.62 713.529 1688.41 711.562 1689.19 C 708.622 1690.36 705.283 1688.98 704.04 1686.06 C 702.798 1683.15 704.105 1679.78 706.985 1678.47 z"/>
<path transform="translate(0,0)" fill="rgb(248,244,239)" d="M 1374.6 1410.06 C 1414.21 1430.37 1455.14 1451.96 1489.28 1480.86 C 1498.14 1507.02 1499.28 1530.4 1493.62 1557.63 C 1488.05 1584.41 1471.89 1606.98 1454.69 1627.69 C 1432.19 1654.81 1404.79 1681.49 1375.62 1701.36 C 1341.39 1724.68 1303.03 1742.25 1265.15 1758.69 C 1175.27 1797.72 1080.87 1828.34 987.108 1856.65 C 973.018 1860.94 958.87 1865.04 944.668 1868.95 C 931.875 1872.37 895.693 1878.92 886.448 1885.4 C 884.513 1886.76 884.363 1886.81 883.906 1889.21 L 885.42 1890.68 C 886.852 1890.97 888.072 1891.07 889.52 1890.78 C 945.261 1879.81 999.951 1861.67 1053.98 1844.38 C 1134.89 1818.51 1214.63 1791.1 1291.94 1755.72 C 1320.01 1742.88 1348.62 1729.7 1374.34 1712.49 C 1415.52 1684.95 1457.44 1643.46 1484.32 1601.9 C 1504.41 1570.83 1511.24 1530.47 1503.49 1494.37 C 1513.44 1505.11 1522.08 1518.16 1527.42 1531.83 C 1537.28 1557.1 1533.67 1582.11 1522.81 1606.43 C 1507.65 1640.35 1479.28 1665.59 1450.89 1688.48 C 1358.77 1762.77 1251.65 1808.02 1142.24 1850.46 C 1012.49 1899.87 817.722 1938.92 678.402 1925.89 C 625.318 1920.93 572.005 1902.1 537.094 1860.05 C 554.245 1869.69 571.864 1875.22 591.563 1876.75 C 626.45 1879.46 684.31 1873.54 716.494 1860.93 C 788.632 1832.68 846.136 1773.47 915.459 1738.49 C 971.586 1710.17 1031.18 1689.48 1089.72 1666.92 C 1139.28 1647.81 1197.59 1627.36 1239.33 1593.75 C 1259.37 1577.62 1270.49 1558.49 1277.71 1534.1 C 1281.05 1522.79 1284.16 1511.73 1289.83 1501.32 C 1304.32 1474.71 1330 1451.1 1352.91 1431.51 C 1383.8 1447.44 1430.63 1475.12 1446.17 1506.88 C 1454.81 1524.54 1456.75 1545.23 1450.14 1563.88 C 1438.25 1597.4 1405.15 1634.84 1376.19 1654.56 C 1365.39 1661.91 1354.31 1666.91 1342.67 1672.59 C 1339.68 1674.05 1336.26 1675.68 1335.12 1679.02 L 1336.14 1680.4 C 1337.71 1680.99 1339.37 1681.75 1341.09 1681.56 C 1346.45 1680.99 1352.92 1676.85 1357.74 1674.39 C 1392.41 1656.3 1421.65 1629.31 1442.46 1596.2 C 1457.31 1572.98 1467.42 1550.3 1460.99 1522.49 C 1449.5 1472.79 1399.29 1449.69 1359.6 1425 C 1364.39 1419.7 1369.23 1414.77 1374.6 1410.06 z"/>
<path transform="translate(0,0)" fill="rgb(51,51,36)" d="M 1311.51 1714.22 C 1312.03 1714.17 1312.55 1714.02 1313.07 1714.07 C 1315.35 1714.27 1315.97 1715.57 1317.16 1717.23 L 1316.78 1719.01 C 1312.5 1722.79 1261 1733.42 1250.53 1736.91 C 1231.76 1743.17 1214.4 1752.4 1196.75 1761.18 C 1194.5 1760.79 1193.51 1760.47 1191.8 1758.94 L 1191.85 1757.07 C 1195.4 1752.17 1203.23 1749.31 1208.59 1746.59 C 1245.06 1728.12 1272.48 1722.25 1311.51 1714.22 z"/>
<path transform="translate(0,0)" fill="rgb(8,6,4)" d="M 810.561 1890.39 C 813.528 1890.06 816.877 1889.47 819.857 1889.64 C 822.399 1889.79 825.028 1890.43 826.866 1892.27 C 826.715 1892.52 826.599 1892.79 826.414 1893 C 822.363 1897.81 807.972 1898.51 801.968 1899.28 C 796.245 1900.22 791.359 1901.59 786.124 1898.15 C 786.293 1897.87 786.428 1897.56 786.633 1897.3 C 791.364 1891.32 803.692 1891.07 810.561 1890.39 z"/>
<path transform="translate(0,0)" fill="rgb(8,6,4)" d="M 819.808 1842.73 C 822.664 1841.32 826.063 1841.6 828.658 1843.44 C 831.253 1845.29 832.624 1848.41 832.227 1851.57 C 831.831 1854.73 829.732 1857.42 826.761 1858.57 C 822.443 1860.24 817.576 1858.21 815.714 1853.97 C 813.853 1849.74 815.657 1844.78 819.808 1842.73 z"/>
<path transform="translate(0,0)" fill="rgb(8,6,4)" d="M 1300.29 1664.48 C 1304.3 1663.47 1308.4 1665.83 1309.54 1669.81 C 1310.69 1673.79 1308.47 1677.97 1304.53 1679.25 C 1301.86 1680.12 1298.92 1679.46 1296.88 1677.53 C 1294.83 1675.6 1294 1672.71 1294.71 1669.99 C 1295.42 1667.28 1297.56 1665.16 1300.29 1664.48 z"/>
<path transform="translate(0,0)" fill="rgb(8,6,4)" d="M 1414.01 1521.42 C 1418.02 1520.23 1422.24 1522.49 1423.48 1526.48 C 1424.72 1530.48 1422.51 1534.73 1418.53 1536.02 C 1415.91 1536.87 1413.04 1536.24 1411.01 1534.38 C 1408.98 1532.52 1408.11 1529.71 1408.73 1527.03 C 1409.35 1524.35 1411.37 1522.2 1414.01 1521.42 z"/>
<path transform="translate(0,0)" fill="rgb(8,6,4)" d="M 1379.39 1613.76 C 1382.46 1611.73 1386.59 1612.49 1388.73 1615.49 C 1390.86 1618.49 1390.24 1622.65 1387.31 1624.88 C 1385.33 1626.39 1382.68 1626.71 1380.4 1625.7 C 1378.12 1624.69 1376.57 1622.51 1376.36 1620.03 C 1376.15 1617.54 1377.31 1615.14 1379.39 1613.76 z"/>
<path transform="translate(0,0)" fill="rgb(8,6,4)" d="M 855.268 1807.68 C 857.411 1806.52 860.011 1806.61 862.069 1807.92 C 864.126 1809.22 865.321 1811.53 865.193 1813.96 C 865.066 1816.39 863.636 1818.57 861.453 1819.64 C 858.161 1821.27 854.17 1819.96 852.484 1816.7 C 850.797 1813.44 852.035 1809.42 855.268 1807.68 z"/>
<path transform="translate(0,0)" fill="rgb(8,6,4)" d="M 1015.54 1817.45 C 1017.75 1816.32 1020.41 1816.53 1022.42 1817.99 C 1024.42 1819.45 1025.44 1821.92 1025.05 1824.37 C 1024.66 1826.82 1022.93 1828.84 1020.57 1829.61 C 1017.3 1830.67 1013.75 1829.04 1012.44 1825.86 C 1011.12 1822.67 1012.47 1819.01 1015.54 1817.45 z"/>
<path transform="translate(0,0)" fill="rgb(8,6,4)" d="M 915.667 1839.36 C 917.929 1838.59 920.43 1839.11 922.198 1840.72 C 923.966 1842.32 924.723 1844.76 924.176 1847.09 C 923.63 1849.41 921.865 1851.26 919.566 1851.91 C 916.134 1852.88 912.555 1850.94 911.497 1847.53 C 910.439 1844.13 912.289 1840.5 915.667 1839.36 z"/>
<path transform="translate(0,0)" fill="rgb(8,6,4)" d="M 953.124 1813.38 C 956.405 1811.85 960.302 1813.28 961.816 1816.57 C 963.33 1819.86 961.884 1823.75 958.59 1825.25 C 955.316 1826.74 951.452 1825.3 949.947 1822.04 C 948.442 1818.77 949.862 1814.9 953.124 1813.38 z"/>
<path transform="translate(0,0)" fill="rgb(8,6,4)" d="M 1245.17 1685.46 C 1248.38 1684.98 1251.45 1686.97 1252.3 1690.1 C 1253.16 1693.23 1251.54 1696.51 1248.53 1697.72 C 1246.25 1698.65 1243.63 1698.18 1241.82 1696.51 C 1240 1694.85 1239.29 1692.29 1240.01 1689.93 C 1240.73 1687.57 1242.74 1685.83 1245.17 1685.46 z"/>
<path transform="translate(0,0)" fill="rgb(8,6,4)" d="M 1207.43 1667.59 C 1210.31 1665.9 1214 1666.73 1215.87 1669.5 C 1217.75 1672.26 1217.15 1676 1214.52 1678.05 C 1212.65 1679.49 1210.14 1679.78 1208 1678.8 C 1205.85 1677.82 1204.44 1675.72 1204.32 1673.37 C 1204.2 1671.01 1205.4 1668.79 1207.43 1667.59 z"/>
<path transform="translate(0,0)" fill="rgb(8,6,4)" d="M 1379.2 1567.5 C 1381.35 1566.62 1383.81 1566.99 1385.61 1568.46 C 1387.4 1569.94 1388.25 1572.28 1387.8 1574.56 C 1387.36 1576.84 1385.7 1578.69 1383.48 1579.38 C 1380.25 1580.4 1376.8 1578.68 1375.65 1575.49 C 1374.5 1572.31 1376.07 1568.78 1379.2 1567.5 z"/>
<path transform="translate(0,0)" fill="rgb(8,6,4)" d="M 1114.04 1772.58 C 1116.01 1771.45 1118.45 1771.49 1120.38 1772.7 C 1122.3 1773.91 1123.41 1776.09 1123.25 1778.36 C 1123.09 1780.62 1121.69 1782.62 1119.61 1783.55 C 1116.61 1784.88 1113.1 1783.63 1111.61 1780.71 C 1110.13 1777.78 1111.19 1774.21 1114.04 1772.58 z"/>
<path transform="translate(0,0)" fill="rgb(8,6,4)" d="M 1366.56 1503.55 C 1369.75 1502.98 1372.79 1505.12 1373.33 1508.32 C 1373.88 1511.51 1371.71 1514.53 1368.51 1515.05 C 1365.35 1515.56 1362.37 1513.42 1361.84 1510.27 C 1361.3 1507.11 1363.41 1504.11 1366.56 1503.55 z"/>
<path transform="translate(0,0)" fill="rgb(8,6,4)" d="M 718.239 1893.22 C 721.978 1893.46 726.25 1893.25 729.232 1895.76 C 729.795 1898.89 729.211 1899.29 727.781 1902.02 C 725.916 1902.09 723.831 1902.27 721.989 1901.96 C 719.19 1901.49 717.707 1900.26 715.977 1898.17 C 716.241 1895.49 716.481 1895.3 718.239 1893.22 z"/>
<path transform="translate(0,0)" fill="rgb(8,6,4)" d="M 916.193 1783.73 C 917.938 1783.15 919.86 1783.59 921.171 1784.88 C 922.481 1786.17 922.96 1788.09 922.411 1789.84 C 921.862 1791.59 920.376 1792.89 918.564 1793.21 C 916.038 1793.64 913.604 1792.05 912.982 1789.57 C 912.359 1787.08 913.759 1784.53 916.193 1783.73 z"/>
<path transform="translate(0,0)" fill="rgb(8,6,4)" d="M 898.207 1809.48 C 899.704 1808.66 901.532 1808.71 902.977 1809.62 C 904.423 1810.54 905.259 1812.16 905.16 1813.87 C 905.06 1815.58 904.042 1817.09 902.5 1817.83 C 900.207 1818.93 897.457 1818.01 896.294 1815.74 C 895.132 1813.48 895.979 1810.71 898.207 1809.48 z"/>
<path transform="translate(0,0)" fill="rgb(8,6,4)" d="M 1180.84 1718.61 C 1182.07 1717.37 1183.88 1716.92 1185.55 1717.44 C 1187.21 1717.96 1188.45 1719.36 1188.76 1721.07 C 1189.07 1722.79 1188.41 1724.54 1187.03 1725.6 C 1185.08 1727.12 1182.29 1726.86 1180.65 1725.01 C 1179.02 1723.16 1179.1 1720.36 1180.84 1718.61 z"/>
<path transform="translate(0,0)" fill="rgb(248,244,239)" d="M 1246.07 1289.73 C 1241.09 1297.29 1234.3 1304.12 1227.91 1310.53 C 1214.21 1324.52 1198.86 1336.78 1182.18 1347.04 C 1107.62 1392.82 979.653 1425.84 892.78 1443.76 C 866.385 1449.2 839.868 1453.23 813.188 1456.94 C 755.892 1464.91 686.636 1474.31 635.421 1440.87 C 627.933 1435.98 614.645 1426.64 610.625 1418.55 C 608.696 1415.47 605.938 1413.07 603.342 1410.55 C 592.124 1393.99 584.168 1372.94 582.392 1352.94 C 607.753 1391.98 635.058 1423.72 682.858 1433.75 C 708.691 1439.18 736.634 1437.19 762.446 1432.68 C 800.858 1425.97 837.075 1412.14 874.49 1401.72 C 900.446 1394.72 926.33 1387.45 952.137 1379.91 C 985.54 1369.88 1018.67 1358.95 1052.13 1349.11 C 1079.58 1341.03 1107.78 1334.89 1134.98 1326.11 C 1172.26 1314.08 1207.76 1298.63 1246.07 1289.73 z"/>
<path transform="translate(0,0)" fill="rgb(8,6,4)" d="M 603.342 1410.55 C 604.373 1407.68 605.186 1404.49 608.177 1403.06 C 610.351 1402.02 612.864 1402.01 615.019 1403.13 C 617.09 1404.2 618.926 1406.24 619.398 1408.56 C 619.871 1410.9 619.152 1413.18 617.53 1414.91 C 615.667 1416.89 613.108 1417.69 610.625 1418.55 C 608.696 1415.47 605.938 1413.07 603.342 1410.55 z"/>
<path transform="translate(0,0)" fill="rgb(51,51,36)" d="M 990.966 1392.4 C 1001.18 1390.83 1017.32 1390.81 1027.11 1394.45 C 1030.4 1395.67 1032.75 1397.22 1034.16 1400.46 C 1032.54 1402.09 1032.4 1402.12 1030.18 1402.16 C 1025.16 1402.26 1019.55 1400.54 1014.54 1399.84 C 1008.59 1399.01 1002.43 1398.95 996.432 1399.24 C 954.633 1401.21 910.5 1420.46 872.564 1436.99 C 863.162 1441.1 850.029 1448.47 839.737 1449.04 C 837.522 1449.17 837.402 1449.21 835.758 1447.62 L 836.374 1445.87 C 846.668 1439.43 859.334 1435.19 870.519 1430.44 C 909.287 1413.96 948.665 1396.83 990.966 1392.4 z"/>
<path transform="translate(0,0)" fill="rgb(51,51,36)" d="M 1131.5 10.4292 C 1143.71 10.0746 1155.91 11.1843 1167.84 13.7347 C 1181.6 16.7143 1197.14 22.1327 1204.85 34.786 C 1209.52 42.4493 1210.12 51.1852 1207.93 59.7603 C 1199.02 94.4883 1135.08 152.357 1105.74 174.828 C 1092.97 184.611 1079.54 193.022 1065.83 201.406 C 1100.55 209.01 1138.9 221.454 1160.31 251.99 C 1170.37 266.332 1175.22 283.373 1171.94 300.806 C 1167.18 326.117 1152.31 338.419 1132.22 352.354 C 1159.9 356.265 1186.99 360.617 1213.52 369.701 C 1252.73 383.124 1301.21 405.486 1320.14 444.596 C 1328.35 461.583 1328.76 479.324 1322.43 497 C 1302.38 553.028 1224.5 590.476 1173.7 614.879 C 1220.66 629.818 1263.68 651.848 1305.69 677.363 C 1325.73 689.531 1406.21 744.15 1410.17 765.087 C 1410.55 767.069 1410.22 768.95 1409.01 770.554 C 1407.22 772.928 1405.11 774.255 1402.14 774.61 C 1399.34 774.944 1396.65 772.698 1394.55 771.085 C 1386.91 765.21 1380.15 757.626 1373.1 750.992 C 1362.8 741.296 1352.09 732.455 1340.7 724.062 C 1270.68 748.744 1218.33 730.438 1150.66 713.199 C 1127.4 707.404 1103.86 702.775 1080.14 699.327 C 1043.35 693.699 1006.35 692.236 969.29 689.72 C 957.843 688.943 945.812 686.195 934.403 686.576 C 912.538 687.308 891.85 692.867 870.395 695.9 C 856.842 697.816 842.706 698.661 831.257 689.975 C 790.252 701.783 750.487 717.534 712.518 737.007 C 698.505 744.419 684.683 752.187 671.065 760.303 C 663.093 765.141 655.057 771.055 646.713 775.125 C 644.341 776.282 643.668 776.62 641.046 776.454 L 639.245 774.364 L 639.633 772.163 C 658.307 751.799 753.163 705.325 781.43 699.708 C 782.977 699.401 782.227 699.834 783.378 698.373 C 779.002 697.997 775.011 700.044 770.8 701.115 C 732.733 710.791 689.291 727.481 654.731 746.42 C 638.887 755.103 624.137 766.856 608.144 774.861 C 604.701 776.584 601.879 777.333 598.141 776.083 C 595.917 774.312 594.348 772.329 593.799 769.47 C 593.281 766.774 593.812 765.201 595.434 763.039 C 599.505 757.613 608.225 752.928 613.818 749.123 C 660.413 717.428 717.322 692.604 772.713 681.886 C 744.988 674.748 718.288 665.316 693.571 650.599 C 665.65 633.975 644.062 608.273 636.249 576.461 C 627.575 541.151 636.752 502.536 655.471 471.936 C 688.813 417.431 751.946 375.985 813.191 360.969 C 806.812 358.665 800.457 356.298 794.125 353.867 C 779.321 348.036 762.42 338.137 756.163 322.712 C 753.726 316.703 754.038 310.862 756.762 304.998 C 771.925 272.354 853.299 237.304 887.503 223.906 C 856.895 224.729 778.105 229.45 754.142 211.337 C 747.997 206.693 743.527 199.264 742.891 191.511 C 742.109 181.966 747.989 172.849 754.098 166.056 C 798.292 116.921 1004.29 36.91 1074.48 18.6327 C 1093.31 13.7304 1112.12 11.3428 1131.5 10.4292 z"/>
<path transform="translate(0,0)" fill="rgb(248,244,239)" d="M 937.178 376.242 C 966.761 379.291 997.794 377.13 1027.5 375.777 C 1023.19 384.209 1018.52 392.454 1013.51 400.492 C 951.496 498.254 841.703 540.034 733.777 563.913 C 709.271 569.439 681 574.169 655.842 574.041 C 652.422 561.531 651.63 548.541 652.836 535.652 C 656.621 495.188 682.453 459.925 713.045 434.778 C 768.394 440.303 841.34 426.409 891.913 402.79 C 907.849 395.347 922.411 385.719 937.178 376.242 z"/>
<path transform="translate(0,0)" fill="rgb(248,244,239)" d="M 1185.55 381.277 C 1185.86 381.345 1186.18 381.409 1186.49 381.483 C 1209.23 386.86 1272.36 410.244 1283 428.954 C 1284.63 431.825 1284.78 434.418 1283.57 437.464 C 1277.94 451.647 1234.01 472.362 1219.83 481.471 C 1177.2 508.86 1133.66 546.468 1111.06 592.486 C 1106.2 602.399 1102.97 612.637 1099.81 623.177 C 1066.35 635.168 1032.21 645.18 997.575 653.162 C 969.663 660.112 940.431 665.649 911.91 669.342 C 912.074 668.496 912.237 667.649 912.435 666.81 C 916.797 648.346 926.891 630.484 936.853 614.503 C 976.762 550.478 1015.61 527.069 1077.12 488.864 C 1114.57 465.607 1175.11 425.988 1185.55 381.277 z"/>
<path transform="translate(0,0)" fill="rgb(8,6,4)" d="M 997.461 614.944 C 998.884 615.383 1001 615.902 1002.23 616.791 C 1004.29 618.272 1005.48 619.823 1005.64 622.419 C 1005.84 625.436 1003.39 628.346 1001.74 630.668 C 999.558 630.425 997.812 630.034 996.22 628.365 C 994.4 626.458 993.533 624.119 993.762 621.498 C 994.036 618.365 995.379 617.01 997.461 614.944 z"/>
<path transform="translate(0,0)" fill="rgb(8,6,4)" d="M 954.47 639.575 C 955.952 639.903 957.659 640.194 959.034 640.841 C 961.422 641.964 962.108 643.576 963.066 645.87 C 962.906 649.547 961.992 651.479 960.145 654.632 C 958.714 654.324 957.302 653.983 955.941 653.43 C 954.068 652.669 952.546 651.191 951.93 649.228 C 950.792 645.605 952.595 642.493 954.47 639.575 z"/>
<path transform="translate(0,0)" fill="rgb(248,244,239)" d="M 1121.64 30.4204 C 1129.79 29.9374 1137.8 29.9632 1145.96 30.1998 C 1127.06 36.1378 1108.35 42.7379 1089.47 48.7764 C 1042.79 63.7102 995.461 78.6061 950.167 97.4382 C 915.119 112.293 880.929 129.098 847.758 147.774 C 836.122 154.281 815.087 163.642 808.434 175.282 C 806.883 177.994 806.036 181.14 807.27 184.17 C 808.387 186.912 811.017 188.848 813.746 189.81 C 816.559 190.802 818.714 190.559 821.341 189.321 L 822.051 187.295 C 820.517 183.566 818.051 182.191 814.998 179.731 C 825.843 166.907 844.182 158.828 858.725 150.812 C 888.804 134.233 919.29 118.774 951.075 105.713 C 1020.15 77.3321 1092.3 57.4339 1162.48 32.1648 C 1165.38 33.0433 1168.93 33.8997 1171.42 35.681 C 1173.42 37.1063 1174.66 39.355 1174.82 41.8027 C 1175.18 46.9669 1170.84 52.7005 1167.97 56.7123 C 1133.27 105.277 1032.44 144.944 976.215 160.739 C 960.152 165.251 943.745 168.362 927.298 171.098 C 916.169 172.949 854.064 181.493 847.699 176.951 C 847.77 175.114 847.77 173.347 847.649 171.513 L 845.868 170.376 C 844.047 170.322 841.757 169.859 840.128 170.726 C 837.371 172.191 835.824 174.142 835.007 177.1 C 835.376 178.705 835.792 179.385 836.968 180.61 C 842.374 186.241 850.031 186.685 857.248 186.725 C 887.436 184.454 917.65 181.59 947.358 175.595 C 1013.26 162.299 1088.66 131.5 1143.19 91.9218 C 1157.12 81.812 1179.17 63.2628 1181.85 44.9673 C 1182.24 42.2838 1181.76 43.6194 1183.13 41.2764 L 1185.06 41.6939 C 1187.3 43.9015 1189.72 46.5056 1190.63 49.6194 C 1191.91 54.0129 1188.74 60.7994 1186.74 64.6026 C 1180.71 76.0724 1172.54 86.9738 1162.98 95.7303 C 1152.29 105.51 1139.3 113.29 1126.98 120.841 C 1082.76 148.221 1035.42 170.195 985.967 186.293 C 933.098 203.157 877.346 204.772 822.33 204.11 C 806.577 203.92 783.066 205.449 768.999 197.616 C 766.334 196.133 763.785 193.921 763.264 190.743 C 762.529 186.264 765.441 182.156 768.248 179.005 C 809.014 133.254 1015.55 53.5758 1079.48 36.9272 C 1093.39 33.3052 1107.32 31.3949 1121.64 30.4204 z"/>
<path transform="translate(0,0)" fill="rgb(248,244,239)" d="M 1010.77 221.394 C 1018.06 221.025 1025.57 220.876 1032.85 221.482 C 1059.83 223.728 1087.6 238.66 1105 259.303 C 1115.65 271.942 1123.2 287.484 1121.37 304.417 C 1119.95 317.536 1112.75 328.59 1102.68 336.809 C 1095.73 342.482 1087.93 346.345 1079.29 348.675 C 1042.24 358.663 949.594 358.015 909.684 354.25 C 871.644 351.943 829.418 349.891 795.642 330.783 C 828.15 288.307 912.132 260.015 962.089 242.701 C 975.189 238.161 996.652 234.439 1006.19 224.12 C 1007.7 222.483 1008.51 221.947 1010.77 221.394 z"/>
<path transform="translate(0,0)" fill="rgb(8,6,4)" d="M 944.904 326.688 C 947.345 326.824 949.96 326.744 952.03 328.239 C 954.147 329.768 954.988 331.813 955.218 334.335 C 955.608 338.596 953.169 341.958 950.55 344.993 C 949.566 345.012 947.908 345.095 946.98 344.876 C 944.707 344.326 942.833 342.724 941.935 340.565 C 940.008 336.022 942.692 330.547 944.904 326.688 z"/>
<path transform="translate(0,0)" fill="rgb(8,6,4)" d="M 1015.51 319.462 C 1017.08 319.85 1018.7 320.193 1020.05 321.145 C 1022.29 322.713 1023.46 325.271 1023.82 327.9 C 1024.42 332.196 1022.13 335.359 1019.44 338.365 C 1017.33 337.765 1015.11 337.223 1013.46 335.692 C 1011.68 334.052 1010.46 331.297 1010.5 328.877 C 1010.56 324.823 1012.72 322.093 1015.51 319.462 z"/>
<path transform="translate(0,0)" fill="rgb(8,6,4)" d="M 979.994 322.555 C 981.576 323.389 982.998 324.133 984.189 325.522 C 985.834 327.438 986.542 329.861 986.027 332.354 C 985.167 336.519 982.249 338.874 978.957 341.186 C 977.283 340.53 975.637 340.009 974.432 338.581 C 972.895 336.76 972.372 333.996 972.875 331.702 C 973.809 327.436 976.626 324.997 979.994 322.555 z"/>
<path transform="translate(0,0)" fill="rgb(8,6,4)" d="M 916.348 332.994 C 920.123 332.35 923.735 334.794 924.542 338.538 C 925.349 342.281 923.064 345.996 919.359 346.965 C 916.815 347.63 914.111 346.846 912.318 344.923 C 910.525 342.999 909.932 340.247 910.773 337.756 C 911.615 335.265 913.755 333.436 916.348 332.994 z"/>
<path transform="translate(0,0)" fill="rgb(8,6,4)" d="M 849.82 310.779 C 852.413 310.778 855.197 310.676 857.506 312.102 C 859.485 313.324 860.885 315.023 861.172 317.384 C 861.561 320.574 859.856 322.934 858.097 325.369 C 856.148 325.237 853.743 324.865 852.01 323.902 C 849.776 322.661 847.958 321.025 847.415 318.425 C 846.755 315.262 848.149 313.229 849.82 310.779 z"/>
<path transform="translate(0,0)" fill="rgb(8,6,4)" d="M 872.93 304.403 C 874.954 304.913 877.441 305.726 878.984 307.188 C 880.715 308.829 881.348 311.078 880.918 313.39 C 880.292 316.763 877.418 318.912 874.955 320.98 C 873.168 320.63 871.167 319.889 869.902 318.508 C 868.756 317.257 868.034 315.648 867.995 313.973 C 867.892 309.457 869.926 307.387 872.93 304.403 z"/>
<path transform="translate(0,0)" fill="rgb(8,6,4)" d="M 880.584 329.579 C 882.739 328.291 885.421 328.27 887.596 329.522 C 889.771 330.774 891.1 333.104 891.069 335.613 C 891.038 338.123 889.653 340.42 887.448 341.618 C 884.133 343.42 879.986 342.239 878.118 338.961 C 876.249 335.684 877.345 331.514 880.584 329.579 z"/>
<path transform="translate(0,0)" fill="rgb(8,6,4)" d="M 844.57 329.728 C 848.039 328.411 851.924 330.103 853.322 333.54 C 854.72 336.976 853.119 340.9 849.716 342.378 C 847.443 343.365 844.813 343.043 842.845 341.538 C 840.877 340.032 839.879 337.578 840.237 335.126 C 840.596 332.674 842.254 330.608 844.57 329.728 z"/>
<path transform="translate(0,0)" fill="rgb(8,6,4)" d="M 1048.54 322.888 C 1050.9 322.085 1053.51 322.635 1055.34 324.323 C 1057.18 326.01 1057.95 328.566 1057.34 330.986 C 1056.74 333.405 1054.86 335.303 1052.45 335.932 C 1048.9 336.859 1045.26 334.81 1044.2 331.298 C 1043.15 327.786 1045.06 324.069 1048.54 322.888 z"/>
<path transform="translate(0,0)" fill="rgb(8,6,4)" d="M 815.75 317.601 C 818.186 317.691 820.724 317.976 822.824 319.366 C 824.819 320.686 825.973 322.547 826.191 324.925 C 826.454 327.804 824.636 329.962 822.999 332.077 C 821.575 331.992 819.457 332.042 818.149 331.515 C 815.924 330.617 814.316 328.978 813.698 326.622 C 812.879 323.506 814.489 320.343 815.75 317.601 z"/>
<path transform="translate(0,0)" fill="rgb(8,6,4)" d="M 1083.8 302.848 C 1087.2 301.784 1090.84 303.578 1092.06 306.923 C 1093.28 310.268 1091.65 313.982 1088.37 315.357 C 1086.1 316.304 1083.5 315.931 1081.6 314.384 C 1079.69 312.837 1078.79 310.367 1079.25 307.956 C 1079.71 305.545 1081.46 303.582 1083.8 302.848 z"/>
<path transform="translate(0,0)" fill="rgb(8,6,4)" d="M 924.626 307.428 C 926.767 306.499 929.243 306.794 931.107 308.199 C 932.97 309.604 933.935 311.903 933.631 314.218 C 933.328 316.532 931.803 318.505 929.64 319.382 C 926.35 320.716 922.6 319.156 921.227 315.882 C 919.854 312.609 921.369 308.84 924.626 307.428 z"/>
<path transform="translate(0,0)" fill="rgb(8,6,4)" d="M 891.247 290.632 C 894.445 290.303 897.359 292.488 897.941 295.65 C 898.523 298.812 896.578 301.891 893.472 302.722 C 891.23 303.322 888.842 302.613 887.291 300.887 C 885.74 299.162 885.289 296.711 886.124 294.547 C 886.959 292.382 888.939 290.869 891.247 290.632 z"/>
<path transform="translate(0,0)" fill="rgb(8,6,4)" d="M 898.118 315.622 C 899.818 314.285 902.106 313.965 904.109 314.784 C 906.111 315.603 907.519 317.434 907.796 319.58 C 908.072 321.725 907.175 323.854 905.446 325.154 C 902.812 327.134 899.075 326.625 897.067 324.013 C 895.059 321.401 895.527 317.659 898.118 315.622 z"/>
<path transform="translate(0,0)" fill="rgb(248,244,239)" d="M 1123.73 371.743 C 1141.8 373.935 1159.95 376.077 1177.81 379.681 C 1173.52 390.526 1168.6 400.357 1161.45 409.625 C 1124.41 457.616 1049.65 489.869 1001.48 527.961 C 954.957 564.517 920.133 613.878 901.297 669.969 C 853.125 671.653 808.104 669.803 761.036 658.586 C 736.938 651.669 715.545 641.511 694.118 628.644 C 739.995 618.462 784.947 604.482 828.506 586.848 C 904.355 556.517 973.466 515.495 1038.74 466.586 C 1062.07 449.111 1088.09 429.174 1105.79 405.907 C 1113.68 395.542 1118.63 383.623 1123.73 371.743 z"/>
<path transform="translate(0,0)" fill="rgb(8,6,4)" d="M 851.583 630.478 C 854.664 631.965 857.644 633.472 858.452 637.193 C 859.284 641.024 857.329 644.558 855.354 647.649 C 852.939 647.207 850.289 646.804 848.516 644.89 C 847.384 643.669 846.683 642.201 846.619 640.554 C 846.442 636.022 848.687 633.581 851.583 630.478 z"/>
<path transform="translate(0,0)" fill="rgb(8,6,4)" d="M 800.956 639.321 C 804.46 638.783 807.768 641.093 808.472 644.567 C 809.175 648.042 807.025 651.456 803.588 652.323 C 801.215 652.922 798.704 652.167 797.055 650.358 C 795.406 648.55 794.886 645.98 795.702 643.672 C 796.517 641.364 798.536 639.692 800.956 639.321 z"/>
<path transform="translate(0,0)" fill="rgb(248,244,239)" d="M 1086.57 368.283 C 1095.78 367.039 1105.67 369.28 1114.71 370.923 C 1111.27 382.101 1105.74 392.075 1098.59 401.309 C 1081.01 424.028 1055.27 442.138 1032.43 459.245 C 951.888 519.55 881.125 559.644 785.887 593.453 C 754.128 604.727 720.419 615.312 686.907 619.622 C 685.85 619.813 684.753 619.642 683.684 619.579 C 672.631 611.604 664.011 596.847 659.022 584.382 C 677.367 581.147 696.053 579.631 714.449 576.546 C 746.571 571.16 778.62 562.975 809.755 553.472 C 880.066 532.01 950.557 493.845 998.084 436.668 C 1014.04 417.472 1026.53 396.782 1038.22 374.793 C 1054.5 373.175 1070.47 371.284 1086.57 368.283 z"/>
<path transform="translate(0,0)" fill="rgb(248,244,239)" d="M 1049.36 660.167 C 1067.6 658.621 1234.84 663.11 1246.38 667.123 C 1276.81 677.707 1306.01 699.761 1332.61 717.648 C 1303.52 726.167 1276.37 729.602 1246.16 726.013 C 1202.93 721.693 1160.08 705.058 1117.4 696.259 C 1065.16 685.486 1011.61 683.687 958.535 680.341 C 989.296 674.692 1019.11 668.153 1049.36 660.167 z"/>
<path transform="translate(0,0)" fill="rgb(248,244,239)" d="M 1294.37 439.56 C 1298.34 443.439 1301.75 450.29 1303.76 455.469 C 1309.08 469.149 1307.7 482.834 1301.52 495.936 C 1275.2 551.705 1176.09 595.19 1120.45 615.613 C 1117.07 617.014 1113.44 618.038 1109.97 619.206 C 1124.83 562.977 1185.02 513.203 1233.42 483.834 C 1253.9 471.408 1281.82 460.907 1294.37 439.56 z"/>
<path transform="translate(0,0)" fill="rgb(8,6,4)" d="M 1196.58 533.854 C 1199.94 534.098 1202.6 534.461 1204.9 537.006 C 1204.93 538.809 1204.81 540.287 1205.61 541.957 C 1206.75 544.334 1213.03 544.603 1215.3 546.002 C 1217.61 547.437 1217.72 548.361 1218.25 550.796 C 1217.33 553.77 1216.12 555.236 1214.06 557.43 C 1212.99 557.589 1211.92 557.764 1210.84 557.861 C 1204.71 558.419 1199.44 556.827 1194.85 552.679 C 1192.15 550.246 1190.84 547.303 1190.95 543.625 C 1191.08 539.358 1193.52 536.468 1196.58 533.854 z"/>
<path transform="translate(0,0)" fill="rgb(8,6,4)" d="M 1271.11 481.797 L 1275.42 481.904 C 1277.86 484.241 1281.01 485.894 1283.25 488.375 C 1285.1 490.427 1286.38 493.58 1285.91 496.366 C 1285.23 500.461 1281.77 502.637 1278.6 504.743 C 1277.1 504.791 1275.5 504.905 1274 504.684 C 1270.86 504.22 1267.73 502.042 1265.92 499.476 C 1263.98 496.723 1263.39 493.522 1264.05 490.235 C 1264.93 485.844 1267.58 484.038 1271.11 481.797 z"/>
<path transform="translate(0,0)" fill="rgb(8,6,4)" d="M 1229.39 501.425 C 1233.23 502.231 1237.72 506.536 1240.11 509.619 C 1241.79 511.785 1242.97 515.536 1242.31 518.281 C 1241.4 522.121 1238.25 523.562 1235.02 525.044 C 1234.34 524.948 1233.66 524.842 1232.98 524.725 C 1228.77 523.987 1225.14 522.587 1222.71 518.848 C 1221.21 516.548 1220.59 513.817 1221.17 511.102 C 1222.23 506.209 1225.31 503.894 1229.39 501.425 z"/>
<path transform="translate(0,0)" fill="rgb(8,6,4)" d="M 1158.72 570.76 C 1160.3 570.74 1161.94 570.734 1163.5 570.986 C 1166.03 571.396 1167.63 572.42 1169.02 574.587 C 1171.7 578.777 1171.81 582.991 1170.41 587.689 C 1169.39 591.109 1168.14 591.479 1165.23 593.119 C 1161.34 592.842 1158.22 592.543 1155.35 589.673 C 1153.38 587.703 1152.37 585.207 1152.44 582.421 C 1152.57 577.252 1155.23 574.242 1158.72 570.76 z"/>
<path transform="translate(0,0)" fill="rgb(8,6,4)" d="M 1250.86 526.674 C 1253.07 527.101 1255.39 527.456 1257.25 528.806 C 1259.12 530.163 1260.27 532.318 1260.21 534.642 C 1260.11 538.874 1257.39 541.507 1254.56 544.234 C 1252.45 543.653 1250.62 543.239 1248.89 541.794 C 1246.97 540.197 1245.64 537.794 1245.62 535.266 C 1245.59 531.136 1247.98 529.076 1250.86 526.674 z"/>
<path transform="translate(0,0)" fill="rgb(248,244,239)" d="M 848.731 372.351 C 870.867 369.58 899.062 375.096 922.234 375.071 C 882.227 402.223 838.975 414.002 792.075 422.23 C 769.003 425.401 746.372 426.98 723.089 426.992 C 756.942 395.626 803.698 379.091 848.731 372.351 z"/>
<path transform="translate(0,0)" fill="rgb(248,244,239)" d="M 982.265 226.566 L 982.415 227.224 C 968.992 233.076 954.02 236.707 940.156 241.587 C 891.501 258.714 818.818 284.798 786.718 326.561 L 779.33 321.974 C 777.467 320.083 776.291 318.234 774.922 315.985 C 774.831 313.128 775.404 311.629 776.969 309.213 C 792.357 285.464 876.746 245.24 905.177 238.138 C 927.756 232.497 957.807 231.057 982.265 226.566 z"/>
<path transform="translate(0,0)" fill="rgb(248,244,239)" d="M 1071.85 223.069 C 1072.44 223.096 1073.03 223.11 1073.63 223.151 C 1096.95 224.77 1127.09 241.647 1141.7 259.857 C 1149.64 269.756 1154.99 281.428 1153.33 294.402 C 1151.34 309.844 1141.75 321.181 1130.08 330.519 C 1124.59 333.932 1119.14 336.61 1113.2 339.15 C 1116.66 334.887 1120 330.643 1122.72 325.86 C 1130.25 312.625 1132.75 297.885 1128.59 283.039 C 1120.81 255.301 1095.71 236.481 1071.85 223.069 z"/>
<path transform="translate(0,0)" fill="rgb(248,244,239)" d="M 1134.82 125.105 L 1135.36 126.08 C 1133.7 127.894 1131.97 129.648 1130.18 131.339 C 1103.79 156.731 1065.96 184.877 1031.1 196.429 C 1006.79 204.488 956.549 208.341 930.367 207.802 L 929.842 207.646 C 935.41 204.701 953.353 202.947 960.868 201.299 C 969.818 199.311 978.679 196.945 987.428 194.207 C 1039.62 177.996 1088.47 153.764 1134.82 125.105 z"/>
<path transform="translate(0,0)" fill="rgb(248,244,239)" d="M 1145.12 627.927 C 1167.06 630.584 1206.13 646.029 1226.55 655.653 C 1205.02 653.768 1183.22 653.727 1161.62 653.213 C 1132.95 652.737 1104.11 652.902 1075.48 651.482 C 1099.37 645.708 1122.36 637.14 1145.12 627.927 z"/>
<path transform="translate(0,0)" fill="rgb(86,96,74)" d="M 298.121 840.435 C 325.553 840.28 354.31 838.461 381.565 840.825 C 403.324 842.712 425.608 850.541 439.796 867.897 C 450.616 881.133 455.04 898.264 453.336 915.179 C 451.497 933.438 441.236 945.383 427.767 956.522 C 441.114 964.784 451.64 975.841 456.555 991.027 C 462.417 1009.14 458.727 1026.43 450.057 1042.86 C 447.154 1047.38 443.718 1051.85 439.917 1055.65 C 415.225 1080.38 383.577 1078.91 351.17 1078.93 L 298.192 1078.9 C 298.032 999.451 296.919 919.864 298.121 840.435 z"/>
<path transform="translate(0,0)" fill="rgb(248,244,239)" d="M 357.389 981.477 C 369.402 981.365 385.79 979.505 395.113 988.577 C 399.775 993.114 401.148 999.307 401.065 1005.61 C 400.961 1013.58 398.4 1017.97 392.739 1023.37 C 381.052 1029.68 367.572 1028.27 354.72 1028.21 C 354.653 1016.81 352.732 992.48 355.51 982.287 L 357.389 981.477 z"/>
<path transform="translate(0,0)" fill="rgb(248,244,239)" d="M 354.981 891.927 C 366.674 891.603 378.843 890.352 389.008 897.435 C 393.234 900.379 396.471 904.314 397.135 909.544 C 397.931 915.819 394.043 922.911 390.349 927.625 C 379.467 936.436 368.055 934.74 354.966 934.431 L 354.981 891.927 z"/>
<path transform="translate(0,0)" fill="rgb(86,96,74)" d="M 1135.62 840.405 C 1135.95 840.399 1136.27 840.378 1136.59 840.386 C 1138.06 840.421 1140.11 840.653 1141.47 841.215 C 1142.96 841.832 1243.98 952.053 1256.99 965.84 C 1258.34 924.409 1256.92 882.91 1258.04 841.475 C 1275.2 840.476 1293.85 840.425 1310.98 841.762 C 1311.75 892.166 1311.15 942.66 1311.06 993.073 L 1310.92 1042.82 C 1310.88 1051.68 1311.49 1061.19 1310.34 1069.97 C 1309.93 1073.12 1309.25 1074.02 1306.84 1076 C 1300.56 1076.07 1294.27 1075.77 1287.99 1075.54 C 1273.34 1061.88 1260.02 1046.4 1246.35 1031.74 C 1222.72 1006.19 1198.81 980.896 1174.63 955.866 C 1172.82 996.208 1174.11 1037.11 1174.11 1077.52 C 1157.84 1078.04 1141.23 1077.87 1124.97 1077.3 C 1123.97 1059.88 1124.61 1042.1 1124.62 1024.65 L 1124.73 926.188 L 1124.55 870.832 C 1124.52 861.963 1123.3 850.989 1125.16 842.375 C 1128.24 840.389 1132.06 840.597 1135.62 840.405 z"/>
<path transform="translate(0,0)" fill="rgb(86,96,74)" d="M 573.032 839.885 L 600.183 839.78 C 609.062 860.664 616.676 882.028 625.074 903.104 C 648.401 961.407 671.077 1019.97 693.097 1078.78 C 673.348 1078.46 653.546 1078.84 633.792 1078.92 L 622.501 1048.91 L 598.51 1048.7 L 546.921 1049 C 543.793 1059.14 539.768 1069.11 536.136 1079.08 C 516.252 1079.15 496.369 1079.1 476.486 1078.93 L 573.032 839.885 z"/>
<path transform="translate(0,0)" fill="rgb(248,244,239)" d="M 586.33 946.71 C 592.393 958.478 600.257 986.961 604.676 1000.75 L 586.167 1000.84 L 567.104 1000.82 C 572.373 982.525 579.437 964.459 586.33 946.71 z"/>
<path transform="translate(0,0)" fill="rgb(86,96,74)" d="M 974.1 840.863 C 983.948 840.642 993.72 840.767 1003.56 841.045 C 1010.72 857.099 1016.14 874.309 1022.15 890.839 C 1035.39 927.044 1048.18 963.415 1060.5 999.943 C 1067.01 1018.77 1082.83 1056.36 1084.77 1074.37 C 1084.31 1074.82 1083.92 1075.37 1083.38 1075.71 C 1076.81 1079.83 1045.93 1077.63 1037 1077.07 C 1032.43 1067.61 1030.16 1056.72 1026.32 1046.89 L 987.606 1046.84 L 945.873 1046.96 C 941.364 1057.3 937.351 1067.92 933.127 1078.39 C 913.741 1078.28 894.355 1078.27 874.97 1078.37 L 938.844 926.116 C 950.61 897.791 961.107 868.612 974.1 840.863 z"/>
<path transform="translate(0,0)" fill="rgb(248,244,239)" d="M 988.155 943.593 C 994.654 953.799 1005.21 987.966 1009.87 1000.77 L 986.5 1000.83 L 964.906 1000.76 C 970.791 981.479 979.228 961.692 988.155 943.593 z"/>
<path transform="translate(0,0)" fill="rgb(86,96,74)" d="M 1596.25 842.033 C 1621.74 840.754 1647.74 841.844 1673.29 841.853 C 1691.13 841.86 1716.01 839.684 1733.23 843.211 C 1734.58 845.422 1734.71 847.586 1734.9 850.117 C 1735.48 857.506 1736.15 890.944 1732.21 894.958 C 1729.3 897.916 1662.44 896.342 1653.13 896.332 L 1653.13 932.802 C 1674.86 932.731 1696.64 932.361 1718.36 933.054 C 1719.55 948.599 1719.31 965.694 1717.77 981.201 C 1696.93 982.989 1674.83 981.465 1653.84 981.232 L 1653.77 1008.97 L 1653.78 1021.11 C 1680.12 1021.32 1706.6 1021.04 1732.91 1022.21 C 1734.1 1032.03 1735.89 1065.82 1731.61 1073.59 C 1720.92 1076.29 1607.38 1076.03 1595.47 1073.54 C 1591.78 1060.22 1593.91 1040.19 1593.91 1026.01 L 1593.87 951.035 L 1593.87 885.76 C 1593.87 873.788 1593.38 861.562 1594.18 849.632 C 1594.38 846.682 1594.94 844.667 1596.25 842.033 z"/>
<path transform="translate(0,0)" fill="rgb(86,96,74)" d="M 1460.66 839.368 C 1466.37 838.759 1472.25 838.709 1477.98 838.957 C 1504.76 840.111 1533.66 853.696 1551.58 873.568 C 1543.01 888.036 1530.42 903.144 1519.32 915.812 C 1509.43 908.051 1500.08 900.738 1487.68 897.448 C 1473.64 893.725 1457.39 895.091 1444.89 902.748 C 1430.68 911.453 1421.83 926.894 1418.41 942.909 C 1414.32 962.059 1417.93 983.33 1428.71 999.757 C 1436.44 1011.54 1447.55 1019.52 1461.48 1022.18 C 1485.22 1026.71 1502.48 1015.99 1521.09 1003.13 C 1527.84 1008.73 1533.31 1015.83 1538.82 1022.6 C 1543.24 1028.22 1550.46 1035.28 1551.92 1042.37 C 1552.49 1045.16 1551.71 1047.9 1550.13 1050.2 C 1541.33 1062.98 1505.93 1076.69 1490.3 1079 C 1460.18 1083.34 1429.56 1075.7 1405.01 1057.72 C 1379.62 1038.74 1362.36 1007.52 1358.18 976.269 C 1353.85 942.559 1363.15 908.514 1384.01 881.681 C 1403.43 856.856 1429.63 843.254 1460.66 839.368 z"/>
<path transform="translate(0,0)" fill="rgb(51,51,36)" d="M 1449.5 1832.31 C 1458.59 1830.88 1469.47 1831.63 1477.87 1835.31 C 1492.47 1841.68 1499.71 1854.64 1505.17 1868.76 C 1507.42 1867.81 1509.71 1866.93 1512.02 1866.14 C 1539.28 1857 1573.43 1860.36 1598.91 1873.53 C 1606.56 1877.48 1614.86 1883.32 1617.34 1892.02 C 1618.81 1897.16 1617.82 1903.05 1615.15 1907.62 C 1603.53 1927.48 1533.97 1953.77 1510.75 1959.56 C 1501.58 1961.73 1490.86 1962.54 1481.82 1959.65 C 1469.63 1955.75 1463.44 1946.09 1457.99 1935.31 C 1446.29 1940.8 1435 1946.72 1421.64 1945.43 C 1405.84 1943.92 1379.66 1917.13 1366.83 1907.16 C 1358.85 1900.95 1348.79 1895.99 1342.48 1887.96 C 1342.59 1885.08 1343.52 1883.26 1345.3 1881.06 C 1360.92 1861.8 1425.06 1835.69 1449.5 1832.31 z"/>
<path transform="translate(0,0)" fill="rgb(248,244,239)" d="M 1451.3 1844.33 C 1459.1 1843.14 1468.16 1844 1475.06 1847.94 C 1485.62 1853.96 1489.61 1864.25 1492.6 1875.33 C 1485.15 1880.03 1477.43 1884.75 1470.93 1890.75 C 1462.01 1898.98 1457.4 1908.43 1456.84 1920.53 C 1450.22 1924.67 1443.29 1928.9 1435.65 1930.84 C 1425.31 1933.48 1418 1930.66 1409.35 1925.3 C 1392.17 1912.71 1377 1897.37 1359.75 1884.62 C 1383.48 1865.63 1421.3 1848.72 1451.3 1844.33 z"/>
<path transform="translate(0,0)" fill="rgb(8,6,4)" d="M 1393.85 1880.51 C 1394.68 1880.77 1395.68 1881.06 1396.45 1881.45 C 1399.15 1882.8 1399.42 1883.26 1400.41 1885.94 C 1399.91 1890.5 1396.54 1894.64 1394.14 1898.47 C 1391.79 1897.76 1390.75 1897.14 1389.02 1895.39 C 1387.97 1890.64 1391.8 1884.76 1393.85 1880.51 z"/>
<path transform="translate(0,0)" fill="rgb(8,6,4)" d="M 1413.55 1895.46 C 1416.09 1896.59 1416.25 1896.53 1417.52 1898.97 C 1417.35 1904.53 1414.17 1908.77 1411.16 1913.25 C 1408.26 1911.18 1407.53 1910.99 1406.27 1907.52 C 1406.77 1901.98 1409.77 1899.24 1413.55 1895.46 z"/>
<path transform="translate(0,0)" fill="rgb(8,6,4)" d="M 1430.55 1898.37 C 1431.53 1898.5 1433.13 1898.68 1434.03 1899 C 1436.6 1899.91 1437.19 1901.05 1438.48 1903.23 C 1438.75 1906.66 1437.79 1908.68 1436.37 1911.76 L 1433.02 1912.12 C 1431.55 1911.2 1430.54 1910.97 1429.81 1909.3 C 1428.15 1905.47 1429.15 1902.09 1430.55 1898.37 z"/>
<path transform="translate(0,0)" fill="rgb(8,6,4)" d="M 1472.05 1856.32 C 1474.94 1857.88 1475.46 1858.18 1477.13 1860.97 C 1477.28 1864.27 1476.56 1865.75 1474.97 1868.49 C 1472.62 1867.33 1471.66 1866.58 1470.22 1864.39 C 1469.72 1861.03 1470.65 1859.25 1472.05 1856.32 z"/>
<path transform="translate(0,0)" fill="rgb(248,244,239)" d="M 1541.44 1873.42 C 1544.75 1873.3 1548.05 1873.27 1551.36 1873.56 C 1566.04 1874.82 1593.32 1880 1602.91 1892.38 C 1604.69 1894.67 1605.7 1897.53 1604.82 1900.42 C 1601.05 1912.84 1542.86 1934.64 1529.68 1940.17 C 1522.52 1942.98 1515.02 1945.31 1507.46 1946.73 C 1497.98 1948.51 1487.12 1949 1478.96 1942.99 C 1473.86 1939.24 1471.05 1933.68 1470.27 1927.47 C 1469.07 1917.99 1472.37 1908.69 1478.35 1901.38 C 1493 1883.47 1519.27 1875.43 1541.44 1873.42 z"/>
<path transform="translate(0,0)" fill="rgb(8,6,4)" d="M 1496 1909.52 C 1497.4 1908.62 1499.19 1908.6 1500.61 1909.48 C 1502.02 1910.36 1502.81 1911.97 1502.62 1913.63 C 1502.43 1915.28 1501.31 1916.68 1499.73 1917.22 C 1497.67 1917.93 1495.41 1916.99 1494.46 1915.02 C 1493.51 1913.06 1494.17 1910.7 1496 1909.52 z"/>
<path transform="translate(0,0)" fill="rgb(8,6,4)" d="M 1513.8 1918.45 C 1516.23 1919.58 1517.57 1920.75 1518.59 1923.33 C 1519.55 1925.74 1518.59 1927.49 1517.43 1929.51 C 1514.85 1928.2 1513.05 1927.26 1511.21 1924.92 C 1511.21 1921.58 1511.93 1921.1 1513.8 1918.45 z"/>
<path transform="translate(0,0)" fill="rgb(51,51,36)" d="M 333.032 1841.39 C 337.021 1841.02 340.955 1840.96 344.957 1841.06 C 377.177 1841.87 405.373 1854.23 427.596 1877.51 C 441.649 1873.53 455.839 1872.97 469.395 1879.26 C 476.899 1882.74 484.995 1888.82 487.721 1896.97 C 489.421 1902.05 488.523 1907.08 486.012 1911.72 C 478.645 1925.35 461.365 1934.43 446.5 1936.47 C 439.072 1937.49 430.676 1937.23 423.512 1939.31 C 414.568 1941.9 406.566 1947.55 397.451 1950.45 C 356.675 1960.01 317.501 1953.06 279.739 1935.47 C 266.414 1929.27 247.965 1919.79 242.653 1905.16 C 243.245 1896.7 250.148 1888.28 255.258 1881.81 C 274.702 1857.18 302.376 1845.04 333.032 1841.39 z"/>
<path transform="translate(0,0)" fill="rgb(248,244,239)" d="M 333.698 1855.39 C 336.938 1855.06 340.192 1854.89 343.449 1854.86 C 372.265 1854.69 395.162 1865.04 415.465 1885.06 C 409.437 1892.33 404.527 1900.41 402.356 1909.71 C 400.171 1919.08 401.648 1925 406.453 1933 C 388.019 1941.5 368.63 1941.92 348.761 1940.84 C 317.751 1937.48 279.651 1926.09 257.563 1902.89 C 259.927 1898.39 262.766 1893.91 265.934 1889.93 C 282.667 1868.88 307.567 1858.51 333.698 1855.39 z"/>
<path transform="translate(0,0)" fill="rgb(51,51,36)" d="M 322.45 1892.44 C 323.751 1892.67 324.853 1893.14 326.082 1893.61 C 329.809 1898.18 349.86 1927.38 350.46 1931.66 C 350.606 1932.71 350.403 1933.77 350.374 1934.83 C 339.198 1929.3 329.483 1913.46 323.955 1902.57 C 321.985 1898.68 321.029 1896.74 322.45 1892.44 z"/>
<path transform="translate(0,0)" fill="rgb(51,51,36)" d="M 344.581 1894.57 C 345.146 1894.74 345.729 1894.85 346.277 1895.07 C 354.408 1898.3 372.329 1924.51 376.219 1932.5 C 373.632 1932.23 371.64 1932.04 369.462 1930.43 C 360.922 1924.1 346.263 1904.98 344.581 1894.57 z"/>
<path transform="translate(0,0)" fill="rgb(51,51,36)" d="M 372.224 1891.86 L 376.016 1891.72 C 377.7 1892.39 378.786 1893.09 380.062 1894.39 C 387.531 1902 396.635 1914.74 396.755 1925.67 C 395.755 1925.34 394.753 1925.13 393.886 1924.51 C 389.207 1921.17 372.898 1897.46 372.224 1891.86 z"/>
<path transform="translate(0,0)" fill="rgb(51,51,36)" d="M 295.563 1893.46 C 301.453 1897.11 314.204 1915.04 316.296 1921.25 C 316.858 1922.91 316.056 1923.31 315.222 1924.69 C 307.905 1921.23 295.002 1908.56 293.21 1900.43 C 292.552 1897.44 294.128 1895.91 295.563 1893.46 z"/>
<path transform="translate(0,0)" fill="rgb(51,51,36)" d="M 390.097 1882.54 C 390.609 1882.56 391.122 1882.55 391.633 1882.59 C 395.352 1882.88 397.465 1885.05 399.594 1887.95 C 402.652 1892.1 403.964 1897.12 402.999 1902.15 C 401.799 1901.56 400.821 1900.93 399.84 1900.01 C 395.324 1895.76 390.104 1888.83 390.097 1882.54 z"/>
<path transform="translate(0,0)" fill="rgb(248,244,239)" d="M 440.776 1887.15 C 447.908 1886.63 454.653 1887.18 461.459 1889.51 C 465.765 1890.98 471.256 1893.93 472.896 1898.53 C 474.031 1901.71 473.797 1904.57 472.272 1907.54 C 467.768 1916.29 456.212 1920.29 447.39 1923.05 C 439.414 1924.79 427.786 1927.39 420.154 1923.69 C 417.25 1922.28 415.435 1920.04 414.602 1916.9 C 413.439 1912.52 415.495 1907.32 417.697 1903.62 C 423.076 1894.57 430.836 1889.74 440.776 1887.15 z"/>
<path transform="translate(0,0)" fill="rgb(86,96,74)" d="M 724.713 840.176 L 780.937 840.175 L 781.223 1021.13 C 803.821 1021.37 826.419 1021.49 849.018 1021.49 C 849.127 1040.46 849.029 1059.43 848.725 1078.41 L 724.521 1078.54 C 723.81 1049.02 724.483 1019.41 724.567 989.879 L 724.713 840.176 z"/>
<path transform="translate(0,0)" fill="rgb(197,155,96)" d="M 351.814 682.339 C 355.516 681.826 358.732 680.994 362.258 682.511 C 364.187 684.636 364.71 684.966 365.155 687.754 C 363.557 691.167 360.845 692.622 357.427 693.828 C 350.29 696.346 342.098 697.063 334.652 698.654 C 317.753 702.266 301.895 707.152 286.108 714.321 C 248.767 730.886 216.228 756.634 191.522 789.166 C 144.03 852.841 126.015 941.287 137.724 1019.24 C 152.597 1118.26 213.716 1208.38 311.56 1240.58 C 321.506 1243.85 332.566 1247.57 342.924 1248.95 C 350.298 1249.93 364.634 1249.5 370.339 1253.72 C 371.888 1256.43 371.34 1258.59 370.948 1261.51 C 369.402 1262.53 368.358 1263.27 366.515 1263.7 C 360.329 1265.13 350.166 1262.9 343.98 1261.78 C 306.255 1254.96 272.106 1241.11 240.748 1218.88 C 177.3 1173.91 138.42 1101.94 125.632 1026.26 C 111.918 945.099 129.568 853.159 177.881 785.75 C 219.422 727.79 282.279 693.835 351.814 682.339 z"/>
<path transform="translate(0,0)" fill="rgb(197,155,96)" d="M 1688.51 681.965 C 1727 681.692 1783.39 707.436 1814.16 729.372 C 1872.2 770.741 1907.42 839.98 1919.09 909.393 C 1933.59 995.658 1919.02 1088.54 1867.25 1160.4 C 1825.54 1218.31 1766.81 1249.57 1697.23 1260.82 C 1694.51 1261.09 1693.45 1260.87 1691.05 1259.56 C 1689.6 1257.03 1689.23 1256.44 1689.21 1253.55 C 1690.3 1251.89 1691.23 1250.99 1693.06 1250.24 C 1701.05 1246.94 1710.79 1245.84 1719.25 1243.84 C 1730.1 1241.2 1740.81 1238.02 1751.33 1234.3 C 1763.68 1229.8 1775.58 1224.16 1786.87 1217.44 C 1845.22 1183.05 1884.89 1121.67 1901.71 1056.9 C 1922.51 976.779 1912.52 881.415 1870.03 809.787 C 1838.99 757.454 1791.47 721.798 1733.76 703.613 C 1724.71 700.762 1715.62 698.65 1706.32 696.792 C 1700.79 695.685 1693.63 695.094 1688.5 693.033 C 1686.56 692.255 1686.43 691.316 1685.65 689.534 C 1685.76 686.414 1686.97 684.562 1688.51 681.965 z"/>
<path transform="translate(0,0)" fill="rgb(64,23,10)" d="M 761.522 1144.27 C 770.909 1143.35 779.106 1143.55 787.989 1147.4 C 797.717 1151.61 806.018 1159.08 809.757 1169.16 C 813.03 1177.98 812.75 1188.13 808.569 1196.6 C 802.864 1208.16 792.5 1214.22 780.693 1218.01 C 770.865 1220.21 759.547 1219.18 750.443 1214.92 C 741.518 1210.73 734.989 1203.55 731.815 1194.2 C 728.486 1184.4 728.997 1173.29 734 1164.13 C 740 1153.16 750.041 1147.83 761.522 1144.27 z"/>
<path transform="translate(0,0)" fill="rgb(248,244,239)" d="M 764.415 1154.77 C 774.039 1152.61 784.078 1155.79 790.706 1163.1 C 797.333 1170.4 799.527 1180.7 796.45 1190.07 C 793.373 1199.44 785.499 1206.44 775.832 1208.39 C 761.103 1211.36 746.724 1201.93 743.594 1187.23 C 740.464 1172.53 749.751 1158.05 764.415 1154.77 z"/>
<path transform="translate(0,0)" fill="rgb(197,155,96)" d="M 1456.13 1177.12 C 1480.25 1176.01 1504.56 1176.65 1528.7 1176.63 L 1644.27 1176.6 C 1661.24 1176.71 1678.21 1176.67 1695.17 1176.49 C 1705.05 1176.41 1716.02 1175.43 1725.77 1176.9 C 1729.85 1177.52 1731.99 1178.03 1734.54 1181.35 C 1734.48 1184.76 1734.01 1185.22 1732.21 1187.97 C 1666.42 1189.79 1600.22 1188.1 1534.38 1188.11 C 1520.46 1188.11 1467.18 1189.98 1457.97 1187.69 C 1455.28 1187.02 1454.66 1186.21 1453.32 1183.9 C 1453.58 1180.68 1454.27 1179.61 1456.13 1177.12 z"/>
<path transform="translate(0,0)" fill="rgb(64,23,10)" d="M 1052.66 1143.02 C 1056.17 1142.96 1059.6 1143.06 1063.1 1143.34 L 1064 1144.66 C 1064.09 1158.52 1066.72 1206.97 1063.56 1216.98 C 1060.27 1218.54 1055.78 1218.03 1052.19 1218.06 L 1051.8 1163.77 C 1045.44 1174.68 1038.54 1185.18 1032.15 1196.06 C 1029.77 1200.1 1026.52 1206.97 1021.71 1208.22 C 1014.93 1205.26 998.193 1175.98 992.744 1167.98 L 991.09 1167.6 L 990.903 1217.96 C 987.065 1218.06 983.616 1218.14 979.853 1217.31 C 976.892 1212.36 978.54 1155.62 978.548 1145.48 C 982.747 1145.16 987.009 1145.17 991.22 1145.05 C 1000.6 1161.25 1011.22 1176.71 1021.6 1192.28 L 1052.66 1143.02 z"/>
<path transform="translate(0,0)" fill="rgb(64,23,10)" d="M 851.419 1145.32 L 863.88 1145.41 L 893.071 1192.46 C 897.795 1185.14 916.852 1149.16 922.877 1146.3 C 925.804 1144.92 930.353 1145.56 933.294 1146.54 C 936.564 1154.14 934.352 1206.14 934.306 1218.2 L 922.15 1218.04 L 922.101 1182.75 L 921.831 1164.63 C 913.648 1179.5 903.96 1196.9 892.4 1209.34 C 881.132 1197.35 872.269 1179.69 863.453 1165.67 C 862.805 1182.9 863.117 1200.25 863.032 1217.49 C 859.09 1217.86 855.018 1217.79 851.056 1217.91 L 851.419 1145.32 z"/>
<path transform="translate(0,0)" fill="rgb(197,155,96)" d="M 352.194 1175.48 C 404.402 1174.79 456.729 1175.45 508.949 1175.61 C 521.13 1175.64 533.321 1175.79 545.5 1175.68 C 550.836 1175.63 556.759 1174.69 562.016 1175.65 C 565.38 1176.26 566.704 1177.53 568.486 1180.32 C 568.739 1182.85 568.888 1182.87 567.411 1184.91 C 559.586 1189.15 546.993 1187.35 538.25 1187.2 L 386.544 1187.41 C 371.684 1187.46 336.662 1189.3 324.632 1187.23 C 321.201 1186.63 319.911 1184.93 318.118 1182.26 C 318.155 1180.84 317.807 1180.29 318.953 1179.24 C 325.152 1173.57 343.902 1175.46 352.194 1175.48 z"/>
<path transform="translate(0,0)" fill="rgb(197,155,96)" d="M 1836 939.312 C 1852.29 935.628 1868.49 945.808 1872.23 962.08 C 1875.98 978.353 1865.86 994.589 1849.6 998.394 C 1833.25 1002.22 1816.91 992.035 1813.15 975.677 C 1809.38 959.319 1819.63 943.016 1836 939.312 z"/>
<path transform="translate(0,0)" fill="rgb(51,51,36)" d="M 1043.53 717.413 C 1059.28 716.488 1075.09 716.9 1090.77 718.642 C 1122.47 722.137 1153.19 730.915 1183.14 741.579 C 1188.63 743.532 1198.5 745.958 1202.15 750.512 C 1202.64 753.205 1202.76 753.288 1201.47 755.675 C 1194.64 757.517 1159.83 743.142 1149.77 740.077 C 1110.21 728.018 1073 724.024 1031.76 727.217 C 1000.23 730.177 969.149 736.775 939.138 746.882 C 929.805 749.925 892.522 765.919 886.287 766.314 C 883.588 766.485 883.138 765.923 881.281 764.26 C 881.313 762.835 881.005 761.852 881.99 760.684 C 885.743 756.235 897.426 753.04 903.004 750.898 C 948.525 733.412 994.867 721.434 1043.53 717.413 z"/>
<path transform="translate(0,0)" fill="rgb(197,155,96)" d="M 197.739 939.406 C 208.265 936.801 219.379 940.057 226.835 947.931 C 234.291 955.804 236.937 967.08 233.761 977.448 C 230.586 987.817 222.08 995.676 211.493 998.025 C 195.4 1001.59 179.428 991.558 175.662 975.509 C 171.897 959.46 181.737 943.367 197.739 939.406 z"/>
<path transform="translate(0,0)" fill="rgb(64,23,10)" d="M 1217.81 1142.95 C 1219.62 1142.82 1221.38 1142.67 1223.19 1142.77 C 1225.86 1142.92 1226.68 1143.02 1228.78 1144.75 C 1233.69 1148.78 1238.28 1155.24 1242.58 1160.05 C 1253.29 1172.07 1264.08 1184.01 1274.97 1195.86 L 1275 1143.18 L 1287.86 1143.11 C 1287.51 1167.66 1287.3 1192.21 1287.2 1216.76 C 1284.88 1217.8 1282.44 1218.12 1279.88 1217.88 C 1275.25 1217.45 1236.08 1171.66 1230.04 1165.28 L 1230.04 1217.65 L 1217.9 1217.78 L 1217.81 1142.95 z"/>
<path transform="translate(0,0)" fill="rgb(64,23,10)" d="M 1336.38 1142.47 C 1344.61 1142.44 1381.88 1140.28 1387.17 1144.34 C 1387.35 1147.01 1387.74 1149.35 1386.51 1151.83 C 1374.45 1154.69 1357.89 1152.52 1345.32 1152.4 L 1345.24 1174.19 C 1357.59 1174.17 1371.69 1172.83 1383.82 1174.63 C 1384.19 1175.31 1384.62 1175.97 1384.68 1176.79 C 1384.8 1178.28 1384.55 1180.41 1383.61 1181.63 C 1378.24 1188.53 1354.66 1183.39 1346.43 1184.79 C 1345.92 1184.88 1345.42 1184.98 1344.91 1185.08 L 1344.86 1207.07 C 1358.87 1206.95 1373.98 1205.7 1387.85 1207.38 L 1388.69 1208.94 C 1388.67 1211.96 1389.49 1214.89 1387.33 1217.09 C 1369.33 1219.47 1349.42 1217.65 1331.25 1217.45 C 1332.06 1205.98 1330.17 1148.92 1333.09 1143.23 L 1336.38 1142.47 z"/>
<path transform="translate(0,0)" fill="rgb(64,23,10)" d="M 1161.18 1142.46 L 1174.07 1142.56 C 1174.18 1159.97 1178.35 1196.18 1165.96 1208.71 C 1159.52 1215.24 1150.27 1218.34 1141.22 1218.34 C 1131.75 1218.34 1121.42 1215.39 1114.77 1208.34 C 1104.97 1197.95 1106.9 1181.1 1106.99 1167.87 L 1106.93 1142.81 L 1119.7 1142.83 C 1119.96 1157.5 1116.09 1189.52 1124.51 1200.56 C 1127.91 1205.02 1132.88 1207.07 1138.36 1207.57 C 1143.75 1208.07 1149.51 1207.28 1153.73 1203.63 C 1165.36 1193.56 1160.61 1157.39 1161.18 1142.46 z"/>
<path transform="translate(0,0)" fill="rgb(64,23,10)" d="M 660.305 1144.24 C 669.412 1143.66 681.976 1145.48 689.82 1150.46 C 692.661 1152.26 693.516 1153.99 694.199 1157.18 C 693.17 1160.32 690.495 1161.74 687.94 1163.58 C 685.516 1161.92 683.071 1160.25 680.414 1158.98 C 672.618 1155.25 663.571 1153.83 655.327 1156.95 C 648.773 1159.43 643.455 1164.78 640.634 1171.15 C 637.721 1177.74 637.61 1185.22 640.327 1191.89 C 642.925 1198.38 647.92 1203.88 654.5 1206.43 C 663.503 1209.9 672.856 1207.71 681.341 1203.94 L 687.938 1197.75 L 696.192 1206.72 C 690.397 1212.3 683.221 1216.25 675.399 1218.15 C 664.168 1220.87 651.554 1219.12 641.68 1213.04 C 633.3 1207.99 627.345 1199.74 625.194 1190.19 C 623.054 1180.12 625.182 1169.62 631.072 1161.18 C 638.08 1151.21 648.608 1146.25 660.305 1144.24 z"/>
<path transform="translate(0,0)" fill="rgb(51,51,36)" d="M 911.601 718.356 C 913.178 718.035 914.958 717.927 916.562 717.835 C 919.292 717.68 920.486 718.264 922.4 720.163 C 923.773 721.527 923.375 721.564 923.309 723.306 C 918.375 728.398 898.698 728.502 891.424 729.957 C 860.551 736.135 830.385 747.167 801.342 759.089 C 798.379 760.423 796.336 761.374 793.132 760.183 C 791.155 759.449 791.792 759.826 790.838 757.828 C 791.294 756.848 791.304 756.678 792.138 755.745 C 796.829 750.499 807.442 747.275 813.926 744.724 C 845.438 732.331 877.957 722.816 911.601 718.356 z"/>
<path transform="translate(0,0)" fill="rgb(51,51,36)" d="M 803.422 721.085 C 803.975 721.059 804.528 720.977 805.081 721.006 C 807.65 721.143 808.054 721.762 809.687 723.547 L 809.507 725.536 C 804.219 731.955 789.976 733.881 782.108 736.613 C 759.198 744.57 737.564 757.208 716.326 768.726 C 713.712 768.848 713.872 768.708 711.901 766.942 C 711.592 765.569 711.046 764.773 711.776 763.453 C 718.367 751.532 787.844 726.008 803.422 721.085 z"/>
<path transform="translate(0,0)" fill="rgb(8,6,4)" d="M 527.215 1935.3 C 531.543 1935.21 535.194 1938.5 535.546 1942.82 C 535.898 1947.13 532.83 1950.97 528.544 1951.58 C 525.534 1952.01 522.533 1950.74 520.754 1948.27 C 518.974 1945.8 518.709 1942.56 520.065 1939.83 C 521.421 1937.11 524.175 1935.37 527.215 1935.3 z"/>
<path transform="translate(0,0)" fill="rgb(8,6,4)" d="M 637.269 1337.6 C 641.529 1336.97 645.55 1339.75 646.443 1343.97 C 647.337 1348.18 644.794 1352.36 640.641 1353.51 C 637.723 1354.31 634.601 1353.43 632.532 1351.22 C 630.464 1349.02 629.791 1345.84 630.785 1342.98 C 631.779 1340.13 634.276 1338.05 637.269 1337.6 z"/>
<path transform="translate(0,0)" fill="rgb(8,6,4)" d="M 1453.36 1781.34 C 1457.56 1779.97 1462.09 1782.22 1463.53 1786.4 C 1464.97 1790.58 1462.79 1795.15 1458.63 1796.65 C 1455.88 1797.65 1452.81 1797.09 1450.59 1795.18 C 1448.37 1793.27 1447.35 1790.32 1447.93 1787.45 C 1448.5 1784.58 1450.58 1782.24 1453.36 1781.34 z"/>
<path transform="translate(0,0)" fill="rgb(8,6,4)" d="M 603.752 1295.7 C 606.848 1295.95 609.995 1296 612.292 1298.48 C 613.899 1300.21 614.38 1301.83 614.384 1304.12 C 614.389 1307.86 611.998 1310.29 609.597 1312.82 C 606.596 1313 603.93 1313.02 601.541 1310.87 C 600.136 1309.61 599.724 1307.94 599.501 1306.15 C 598.977 1301.93 601.209 1298.76 603.752 1295.7 z"/>
<path transform="translate(0,0)" fill="rgb(8,6,4)" d="M 357.368 1801.23 C 361.574 1800.14 365.868 1802.65 366.989 1806.85 C 368.11 1811.05 365.639 1815.36 361.453 1816.52 C 357.214 1817.69 352.834 1815.18 351.699 1810.93 C 350.564 1806.69 353.11 1802.33 357.368 1801.23 z"/>
<path transform="translate(0,0)" fill="rgb(8,6,4)" d="M 453.592 1837.3 C 456.352 1836.35 459.412 1837.03 461.515 1839.06 C 463.619 1841.08 464.413 1844.11 463.573 1846.91 C 462.732 1849.7 460.398 1851.79 457.527 1852.32 C 453.52 1853.05 449.624 1850.58 448.591 1846.64 C 447.558 1842.7 449.739 1838.63 453.592 1837.3 z"/>
<path transform="translate(0,0)" fill="rgb(8,6,4)" d="M 670.102 1370.3 C 672.698 1369.17 675.706 1369.54 677.949 1371.27 C 680.191 1373 681.312 1375.82 680.873 1378.62 C 680.434 1381.41 678.505 1383.75 675.84 1384.71 C 671.902 1386.13 667.549 1384.17 666.001 1380.28 C 664.452 1376.4 666.267 1371.98 670.102 1370.3 z"/>
<path transform="translate(0,0)" fill="rgb(8,6,4)" d="M 1360.48 1803.65 C 1364.32 1802.23 1368.6 1804.09 1370.18 1807.87 C 1371.76 1811.65 1370.09 1816 1366.38 1817.74 C 1363.84 1818.94 1360.84 1818.64 1358.59 1816.97 C 1356.33 1815.3 1355.17 1812.53 1355.56 1809.75 C 1355.96 1806.96 1357.84 1804.63 1360.48 1803.65 z"/>
<path transform="translate(0,0)" fill="rgb(8,6,4)" d="M 420.106 1816.19 C 424.214 1815.26 428.3 1817.83 429.242 1821.93 C 430.184 1826.04 427.625 1830.13 423.522 1831.08 C 419.405 1832.04 415.294 1829.47 414.349 1825.35 C 413.404 1821.23 415.984 1817.12 420.106 1816.19 z"/>
<path transform="translate(0,0)" fill="rgb(8,6,4)" d="M 424.267 1775.56 C 426.744 1774.38 429.666 1774.62 431.911 1776.2 C 434.157 1777.78 435.377 1780.45 435.105 1783.18 C 434.833 1785.91 433.11 1788.28 430.597 1789.38 C 426.794 1791.06 422.354 1789.37 420.625 1785.59 C 418.895 1781.81 420.517 1777.35 424.267 1775.56 z"/>
<path transform="translate(0,0)" fill="rgb(8,6,4)" d="M 786.333 1321.23 C 790.305 1320.46 794.166 1323 795.043 1326.95 C 795.921 1330.9 793.498 1334.83 789.575 1335.82 C 786.936 1336.48 784.144 1335.66 782.285 1333.67 C 780.426 1331.69 779.795 1328.85 780.636 1326.26 C 781.478 1323.67 783.66 1321.74 786.333 1321.23 z"/>
<path transform="translate(0,0)" fill="rgb(8,6,4)" d="M 740.223 1340.63 C 742.638 1339.34 745.566 1339.5 747.833 1341.03 C 750.1 1342.56 751.336 1345.22 751.045 1347.94 C 750.754 1350.66 748.984 1353 746.444 1354.02 C 742.799 1355.48 738.648 1353.83 736.992 1350.27 C 735.337 1346.71 736.756 1342.47 740.223 1340.63 z"/>
<path transform="translate(0,0)" fill="rgb(8,6,4)" d="M 1623 1803.49 C 1625.33 1802.17 1628.2 1802.25 1630.47 1803.68 C 1632.73 1805.11 1634.03 1807.67 1633.85 1810.34 C 1633.66 1813.02 1632.02 1815.37 1629.58 1816.48 C 1626.03 1818.09 1621.83 1816.62 1620.07 1813.14 C 1618.3 1809.66 1619.59 1805.4 1623 1803.49 z"/>
<path transform="translate(0,0)" fill="rgb(8,6,4)" d="M 665.112 1280.04 C 667.658 1280.52 669.934 1280.4 672.495 1280.41 C 675.607 1280.42 677.429 1280.66 679.661 1282.88 C 680.285 1286.04 679.193 1288.16 678.034 1291.02 C 676.484 1291.68 674.172 1292.84 672.421 1292.83 C 669.968 1292.82 668.052 1292.38 666.523 1290.34 C 664.406 1287.5 664.967 1283.33 665.112 1280.04 z"/>
<path transform="translate(0,0)" fill="rgb(8,6,4)" d="M 1129.8 1905.7 C 1131.85 1904.07 1134.64 1903.73 1137.03 1904.81 C 1139.41 1905.89 1140.99 1908.22 1141.12 1910.83 C 1141.25 1913.45 1139.9 1915.91 1137.63 1917.22 C 1134.46 1919.05 1130.42 1918.12 1128.36 1915.1 C 1126.31 1912.07 1126.94 1907.97 1129.8 1905.7 z"/>
<path transform="translate(0,0)" fill="rgb(8,6,4)" d="M 839.278 1340.44 C 843.049 1339.88 846.568 1342.46 847.177 1346.22 C 847.786 1349.98 845.26 1353.54 841.506 1354.2 C 839.031 1354.63 836.513 1353.7 834.916 1351.76 C 833.319 1349.82 832.89 1347.17 833.793 1344.83 C 834.697 1342.48 836.792 1340.81 839.278 1340.44 z"/>
<path transform="translate(0,0)" fill="rgb(8,6,4)" d="M 799.172 1376.33 C 802.888 1375.8 806.355 1378.32 806.987 1382.02 C 807.62 1385.72 805.188 1389.25 801.505 1389.98 C 799.037 1390.47 796.498 1389.58 794.874 1387.65 C 793.251 1385.73 792.797 1383.08 793.69 1380.73 C 794.583 1378.38 796.682 1376.69 799.172 1376.33 z"/>
<path transform="translate(0,0)" fill="rgb(8,6,4)" d="M 712.277 1312.59 C 714.735 1312.14 717.245 1313.05 718.841 1314.97 C 720.436 1316.9 720.867 1319.53 719.968 1321.87 C 719.069 1324.2 716.98 1325.86 714.506 1326.22 C 710.784 1326.75 707.319 1324.21 706.712 1320.5 C 706.105 1316.78 708.579 1313.27 712.277 1312.59 z"/>
<path transform="translate(0,0)" fill="rgb(8,6,4)" d="M 1062.13 1957.61 C 1064.21 1956.21 1066.87 1956.05 1069.11 1957.18 C 1071.34 1958.31 1072.78 1960.56 1072.89 1963.06 C 1072.99 1965.56 1071.74 1967.92 1069.61 1969.24 C 1066.4 1971.21 1062.2 1970.26 1060.17 1967.09 C 1058.13 1963.92 1059 1959.71 1062.13 1957.61 z"/>
<path transform="translate(0,0)" fill="rgb(8,6,4)" d="M 1278.11 1851.45 C 1280.29 1850.2 1282.96 1850.23 1285.11 1851.52 C 1287.25 1852.81 1288.53 1855.17 1288.45 1857.67 C 1288.37 1860.17 1286.94 1862.43 1284.71 1863.58 C 1281.37 1865.29 1277.28 1864.03 1275.49 1860.74 C 1273.69 1857.44 1274.86 1853.32 1278.11 1851.45 z"/>
<path transform="translate(0,0)" fill="rgb(8,6,4)" d="M 890.694 1343.58 C 892.951 1342.28 895.742 1342.37 897.915 1343.8 C 900.088 1345.23 901.274 1347.75 900.985 1350.34 C 900.696 1352.92 898.979 1355.12 896.544 1356.04 C 893.175 1357.3 889.401 1355.76 887.872 1352.5 C 886.343 1349.25 887.571 1345.36 890.694 1343.58 z"/>
<path transform="translate(0,0)" fill="rgb(8,6,4)" d="M 704.762 1381.53 C 707.109 1380.46 709.857 1380.8 711.878 1382.4 C 713.899 1384 714.852 1386.6 714.346 1389.13 C 713.841 1391.66 711.961 1393.69 709.48 1394.39 C 706.023 1395.37 702.396 1393.52 701.159 1390.15 C 699.922 1386.77 701.493 1383.02 704.762 1381.53 z"/>
<path transform="translate(0,0)" fill="rgb(8,6,4)" d="M 897.591 1971.25 C 900.044 1970.6 902.653 1971.36 904.371 1973.23 C 906.09 1975.1 906.636 1977.76 905.792 1980.15 C 904.947 1982.54 902.85 1984.27 900.341 1984.64 C 896.745 1985.18 893.358 1982.81 892.627 1979.25 C 891.896 1975.69 894.075 1972.17 897.591 1971.25 z"/>
<path transform="translate(0,0)" fill="rgb(8,6,4)" d="M 749.216 1384.22 C 752.798 1383.74 756.124 1386.17 756.754 1389.73 C 757.384 1393.29 755.095 1396.71 751.565 1397.49 C 749.148 1398.02 746.633 1397.18 745.015 1395.31 C 743.397 1393.44 742.935 1390.83 743.812 1388.51 C 744.688 1386.2 746.763 1384.55 749.216 1384.22 z"/>
<path transform="translate(0,0)" fill="rgb(8,6,4)" d="M 578.284 1951.4 C 581.874 1950.88 585.219 1953.33 585.819 1956.9 C 586.42 1960.48 584.057 1963.88 580.496 1964.57 C 578.115 1965.03 575.672 1964.16 574.114 1962.3 C 572.555 1960.44 572.126 1957.89 572.992 1955.62 C 573.858 1953.36 575.884 1951.74 578.284 1951.4 z"/>
<path transform="translate(0,0)" fill="rgb(8,6,4)" d="M 1562.89 1766.65 C 1566.08 1764.83 1570.13 1765.93 1571.97 1769.11 C 1573.8 1772.29 1572.72 1776.35 1569.56 1778.2 C 1566.36 1780.07 1562.26 1778.98 1560.41 1775.77 C 1558.56 1772.57 1559.68 1768.48 1562.89 1766.65 z"/>
<path transform="translate(0,0)" fill="rgb(8,6,4)" d="M 1718.27 1877.56 C 1721.78 1876.78 1725.27 1878.92 1726.15 1882.4 C 1727.04 1885.88 1725 1889.43 1721.55 1890.42 C 1719.23 1891.09 1716.72 1890.44 1715.01 1888.73 C 1713.3 1887.01 1712.66 1884.5 1713.34 1882.18 C 1714.02 1879.85 1715.91 1878.08 1718.27 1877.56 z"/>
<path transform="translate(0,0)" fill="rgb(8,6,4)" d="M 981.479 1940.27 C 984.865 1939.01 988.636 1940.69 989.966 1944.05 C 991.296 1947.41 989.697 1951.21 986.367 1952.61 C 984.15 1953.55 981.602 1953.21 979.706 1951.73 C 977.811 1950.25 976.864 1947.86 977.232 1945.48 C 977.6 1943.1 979.225 1941.11 981.479 1940.27 z"/>
<path transform="translate(0,0)" fill="rgb(8,6,4)" d="M 1271.63 1925.6 C 1274.97 1924.16 1278.83 1925.72 1280.25 1929.06 C 1281.67 1932.41 1280.1 1936.27 1276.75 1937.68 C 1273.42 1939.07 1269.58 1937.51 1268.17 1934.19 C 1266.77 1930.86 1268.31 1927.02 1271.63 1925.6 z"/>
<path transform="translate(0,0)" fill="rgb(8,6,4)" d="M 460.68 1799.59 C 462.786 1798.31 465.429 1798.33 467.522 1799.62 C 469.614 1800.92 470.803 1803.28 470.6 1805.73 C 470.397 1808.19 468.835 1810.32 466.558 1811.25 C 463.393 1812.55 459.762 1811.19 458.223 1808.14 C 456.684 1805.08 457.754 1801.36 460.68 1799.59 z"/>
<path transform="translate(0,0)" fill="rgb(8,6,4)" d="M 1666.74 1919.55 C 1670.14 1918.62 1673.67 1920.57 1674.69 1923.95 C 1675.71 1927.33 1673.85 1930.9 1670.5 1932.01 C 1668.25 1932.76 1665.78 1932.22 1664.04 1930.62 C 1662.3 1929.01 1661.57 1926.59 1662.13 1924.29 C 1662.69 1921.99 1664.45 1920.17 1666.74 1919.55 z"/>
<path transform="translate(0,0)" fill="rgb(8,6,4)" d="M 1202.12 1953.54 C 1204.1 1952.33 1206.58 1952.29 1208.6 1953.42 C 1210.63 1954.56 1211.88 1956.7 1211.88 1959.02 C 1211.87 1961.34 1210.61 1963.48 1208.59 1964.61 C 1205.54 1966.31 1201.69 1965.26 1199.93 1962.25 C 1198.16 1959.23 1199.14 1955.36 1202.12 1953.54 z"/>
<path transform="translate(0,0)" fill="rgb(8,6,4)" d="M 1698.17 1829.61 C 1700.13 1828.38 1702.61 1828.34 1704.59 1829.53 C 1706.58 1830.71 1707.73 1832.91 1707.57 1835.22 C 1707.41 1837.52 1705.97 1839.55 1703.84 1840.44 C 1700.9 1841.69 1697.49 1840.47 1696.02 1837.64 C 1694.54 1834.81 1695.47 1831.32 1698.17 1829.61 z"/>
<path transform="translate(0,0)" fill="rgb(8,6,4)" d="M 1518.75 1805.34 C 1520.61 1804.13 1522.99 1804.05 1524.93 1805.12 C 1526.88 1806.19 1528.09 1808.24 1528.07 1810.46 C 1528.06 1812.68 1526.84 1814.71 1524.88 1815.76 C 1522.02 1817.29 1518.46 1816.29 1516.81 1813.49 C 1515.16 1810.69 1516.02 1807.1 1518.75 1805.34 z"/>
<path transform="translate(0,0)" fill="rgb(8,6,4)" d="M 309.832 1806.16 C 312.953 1805.62 315.95 1807.62 316.653 1810.71 C 317.356 1813.8 315.519 1816.9 312.472 1817.76 C 310.353 1818.36 308.075 1817.74 306.55 1816.15 C 305.025 1814.57 304.501 1812.26 305.188 1810.17 C 305.876 1808.08 307.662 1806.54 309.832 1806.16 z"/>
<path transform="translate(0,0)" fill="rgb(8,6,4)" d="M 1016.88 1311.63 C 1018.42 1310.72 1020.33 1310.71 1021.87 1311.63 C 1023.41 1312.55 1024.32 1314.23 1024.24 1316.02 C 1024.17 1317.81 1023.12 1319.41 1021.51 1320.19 C 1019.16 1321.33 1016.33 1320.42 1015.09 1318.13 C 1013.85 1315.84 1014.64 1312.97 1016.88 1311.63 z"/>
<path transform="translate(0,0)" fill="rgb(8,6,4)" d="M 619.149 1279.06 C 620.711 1278.29 622.568 1278.47 623.96 1279.51 C 625.353 1280.55 626.046 1282.28 625.758 1284 C 625.47 1285.71 624.248 1287.12 622.593 1287.65 C 620.274 1288.39 617.778 1287.21 616.873 1284.95 C 615.968 1282.7 616.961 1280.12 619.149 1279.06 z"/>
</svg>